<svg width="425" height="175" viewBox="0 0 425 175" fill="none" xmlns="http://www.w3.org/2000/svg">
<path d="M0 18.4L9.60001 28.1C19.3 18.9 32.1 13.9 45.4 13.9C58.7 13.9 71.5 19.1 81.1 28.4L90.4 18.4C78.3 6.59999 62.1 0 45.2 0C28.3 0 12.1 6.59999 0 18.4Z" fill="black"/>
<path d="M18.1 53.8C20.8 49 24.7 44.9 29.4 42C38.9 36.1 50.9 36.1 60.4 42C65.1 44.9 69 49 71.8 53.8C76 61.1 77.2 69.8 75 78C72.9 86.2 67.7 93.2 60.4 97.5C50.9 103.2 38.9 103.3 29.4 97.5C24.7 94.7 20.8 90.7 18.1 85.9C12.5 75.9 12.5 63.7 18.1 53.7V53.8ZM26.8 81.1C28.6 84.4 31.3 87.2 34.5 89.2C37.7 91.2 41.4 92.3 45.2 92.2C48.9 92.2 52.6 91.2 55.7 89.2C58.9 87.2 61.5 84.4 63.2 81.1C66.9 74 66.9 65.6 63.2 58.5C61.4 55.1 58.8 52.3 55.5 50.3C49 46.3 40.8 46.3 34.3 50.3C31.1 52.3 28.5 55.2 26.7 58.5C24.8 62 23.9 65.9 23.9 69.8C23.9 73.7 24.8 77.6 26.7 81L26.8 81.1ZM129.8 74.3C131.7 76.8 132.7 79.9 132.7 83.1C132.7 89.2 130.7 93.7 126.7 96.7C122.4 99.8 117.3 101.3 112 101.2H93.1V38.3H109.7C116 38.3 120.9 39.6 124.4 42.3C127.9 45 129.6 48.9 129.6 54.1C129.6 57.1 129 60 127.6 62.6C126.2 65 124.2 67 121.8 68.3C124.9 69.5 127.7 71.6 129.8 74.3ZM102.8 65.1H111.2C113.6 65.3 115.9 64.3 117.5 62.6C119 60.8 119.7 58.6 119.6 56.3C119.8 53.9 118.8 51.6 117.1 50.1C115.1 48.6 112.6 47.9 110.1 48H102.9V65.1H102.8ZM119.6 89.7C121.7 88.2 122.8 85.8 122.7 83.3C122.9 80.7 121.6 78.2 119.3 76.8C116.7 75.4 113.9 74.7 110.9 74.8H102.8V91.9H111.5C114.3 92 117.1 91.3 119.5 89.7H119.6ZM167.6 46.8C165.1 46.7 162.5 47.4 160.5 48.9C158.8 50.3 157.8 52.4 157.9 54.6C157.9 57 159.2 59.2 161.2 60.5C164.1 62.4 167.2 64 170.4 65.2C173.1 66.2 175.7 67.4 178.1 69C180.3 70.5 182.1 72.4 183.4 74.7C184.9 77.5 185.6 80.7 185.5 83.9C185.5 87.1 184.7 90.3 183 93C181.3 95.8 178.9 98 176 99.4C172.6 101.1 168.9 101.9 165.2 101.8C161.5 101.8 157.9 101.2 154.4 100C151 98.9 147.8 97.2 144.9 95.1L149.2 87.2C151.4 88.9 153.9 90.3 156.5 91.2C159 92.2 161.6 92.7 164.3 92.8C167 92.8 169.7 92.1 172 90.6C174.2 89.1 175.5 86.5 175.3 83.8C175.3 81.5 174.3 79.2 172.5 77.7C170.2 75.8 167.5 74.3 164.7 73.3C161.8 72.2 158.9 70.9 156.1 69.4C153.8 68 151.8 66.2 150.2 64C148.5 61.4 147.6 58.3 147.7 55.2C147.5 50.5 149.4 46 152.7 42.8C156.4 39.5 161.1 37.7 166 37.7C169.6 37.7 173.1 38.1 176.5 39.1C179.5 40 182.3 41.4 185 43.1L181.3 50.8C177.1 48.3 172.3 46.8 167.4 46.6L167.6 46.8ZM242.6 38.3V48H212.1V64.8H239.3V74.5H212.2V91.6H243.8V101.3H202.4V38.4H242.6V38.3ZM294.4 101.2L280.7 79.3H271V101.2H261.3V38.3H278.4C285.2 38.3 290.6 40.1 294.7 43.7C298.8 47.3 300.8 52.2 300.8 58.6C300.8 62.3 300 66 298.4 69.4C296.8 72.7 294.2 75.4 290.9 77.1L305.6 101.4H294.4V101.2ZM271 69.7H279.7C283.6 69.7 286.4 68.6 288.2 66.4C289.9 64.3 290.8 61.6 290.8 58.9C290.8 57.2 290.4 55.6 289.8 54C289.1 52.3 287.9 50.8 286.4 49.8C284.5 48.5 282.3 47.9 280.1 48H271.1V69.7H271ZM367.8 38.3L340.7 104.2L313.5 38.3H325.1L341.1 79.6L356.4 38.3H367.8ZM423.2 38.3V48H392.7V64.8H419.8V74.5H392.7V91.6H424.3V101.3H382.9V38.4H423.1L423.2 38.3Z" fill="black"/>
<path d="M101 174.1H87.1V143.5H100.5C107.3 143.5 111.1 146.5 111.1 151.8C111.1 157.1 109.4 157.2 106.8 158.3V158.5C109.9 159.4 112 161.8 112 165.3C112 171.1 107.7 174 101 174V174.1ZM100.5 147.9H92.2V156.5H100.4C103.7 156.5 105.8 154.8 105.8 152.3C105.8 149.8 103.8 148 100.5 148V147.9ZM92.2 160.7V169.6H101.1C104.3 169.6 106.7 168 106.7 165.1C106.7 162.2 104.4 160.9 101.5 160.7H92.2Z" fill="black"/>
<path d="M134.6 143.5H140.2L129.1 162.4V174.1H124.1V162.4L113 143.5H118.7L125.5 155.5L126.6 158L127.7 155.5L134.5 143.5H134.6Z" fill="black"/>
<path d="M155.8 167.1C155.8 167.1 159.4 170.1 164.5 170.1C169.6 170.1 170.4 168.4 170.4 165.9C170.4 163.4 169 162.4 163.5 160.7C156.7 158.7 153.4 156.4 153.4 151.6C153.4 146.8 157.4 142.9 164.6 142.9C171.8 142.9 175.3 146 175.3 146L172.5 150.1C172.5 150.1 169.6 147.6 164.6 147.6C159.6 147.6 158.9 149 158.9 151.4C158.9 153.8 160.5 154.5 165.7 156C173.1 158.1 176.1 160.8 176.1 165.5C176.1 170.2 172.4 174.8 164.7 174.8C157 174.8 153.1 171 153.1 171L155.9 167.2L155.8 167.1Z" fill="black"/>
<path d="M207.7 174.1H203.9L186.3 152.4V174.1H181.3V143.5H185.1L202.6 165.1V143.5H207.7V174.1Z" fill="black"/>
<path d="M213.2 158.8C213.2 149.9 219.3 142.8 228.5 142.8C237.7 142.8 243.8 149.9 243.8 158.8C243.8 167.7 237.7 174.8 228.5 174.8C219.3 174.8 213.2 167.7 213.2 158.8ZM238.7 158.8C238.7 152.5 234.6 147.6 228.5 147.6C222.4 147.6 218.4 152.4 218.4 158.8C218.4 165.2 222.5 169.9 228.5 169.9C234.5 169.9 238.7 165.1 238.7 158.8Z" fill="black"/>
<path d="M265.1 152L259 174H255.1L245.4 143.4H250.8L257 165.1L263 143.4H267.2L273.3 165.1L279.5 143.4H285L275.3 174H271.4L265.2 152H265.1Z" fill="black"/>
<path d="M308.3 160.7H294.1V174H289.1V143.4H311V147.9H294.2V156.4H308.4V160.7H308.3Z" fill="black"/>
<path d="M315.3 174.1V143.5H320.3V169.6H335.3V174.1H315.2H315.3Z" fill="black"/>
<path d="M368.1 174.1H362.8L360.3 167.8H345.7L343.3 174.1H337.9L350.4 143.5H355.5L368 174.1H368.1ZM347.4 163.5H358.6L353 149.3L347.4 163.5Z" fill="black"/>
<path d="M376.9 158.8L391.3 143.4H397.3V144L385.9 156.2L397.5 173.3V174H391.9C391.9 174 385.6 164.7 382.4 160L376.9 165.8V174H371.9V143.4H376.9V158.8Z" fill="black"/>
<path d="M420.7 160.7H406.5V169.6H423.2V174.1H401.4V143.5H423.2V148H406.5V156.5H420.7V160.8V160.7Z" fill="black"/>
</svg>
