<svg xmlns="http://www.w3.org/2000/svg" width="52" height="52" fill="none"><path fill="#F06927" d="M29.884 17.44h-2.133L26 18.97l-1.697-1.532H22.17L26 10.819l3.883 6.62Z"/><path fill="#F1284C" d="M48.482 18.479v2.954a4.128 4.128 0 0 1-2.297 3.72l-20.186 9.846-5.688-2.79 28.171-13.73Zm-23.959 3.227-5.689 2.79-16.083-7.822a4.129 4.129 0 0 1-2.297-3.72V10l24.069 11.706Z"/><path fill="#F1284C" d="M51.546 10v2.954a4.128 4.128 0 0 1-2.298 3.72L18.834 31.498 5.869 25.153a4.129 4.129 0 0 1-2.297-3.72v-2.954l15.262 7.44L51.546 10Z"/><path fill="#F1284C" d="M45.364 27.012v2.953a4.128 4.128 0 0 1-2.297 3.72L26 42 8.987 33.685a4.128 4.128 0 0 1-2.297-3.72v-2.953L26 36.42l19.364-9.409Z"/></svg>