<svg width="268" height="45" viewBox="0 0 268 45" fill="none" xmlns="http://www.w3.org/2000/svg">
<path d="M1.97563 18.28L14.5456 23.26V26.71L1.97563 31.63V28.15L10.7956 24.97L1.97563 21.76V18.28Z" fill="#D3D2CF"/>
<path d="M19.9756 18.28L32.5456 23.26V26.71L19.9756 31.63V28.15L28.7956 24.97L19.9756 21.76V18.28Z" fill="#D3D2CF"/>
<path d="M37.9756 18.28L50.5456 23.26V26.71L37.9756 31.63V28.15L46.7956 24.97L37.9756 21.76V18.28Z" fill="#D3D2CF"/>
<path d="M55.9756 18.28L68.5456 23.26V26.71L55.9756 31.63V28.15L64.7956 24.97L55.9756 21.76V18.28Z" fill="#D3D2CF"/>
<path d="M73.9756 18.28L86.5456 23.26V26.71L73.9756 31.63V28.15L82.7956 24.97L73.9756 21.76V18.28Z" fill="#D3D2CF"/>
<path d="M91.9756 18.28L104.546 23.26V26.71L91.9756 31.63V28.15L100.796 24.97L91.9756 21.76V18.28Z" fill="#D3D2CF"/>
<path d="M109.976 18.28L122.546 23.26V26.71L109.976 31.63V28.15L118.796 24.97L109.976 21.76V18.28Z" fill="#D3D2CF"/>
<path d="M127.976 18.28L140.546 23.26V26.71L127.976 31.63V28.15L136.796 24.97L127.976 21.76V18.28Z" fill="#D3D2CF"/>
<path opacity="0.9" d="M145.976 18.28L158.546 23.26V26.71L145.976 31.63V28.15L154.796 24.97L145.976 21.76V18.28Z" fill="#D3D2CF"/>
<path opacity="0.8" d="M163.976 18.28L176.546 23.26V26.71L163.976 31.63V28.15L172.796 24.97L163.976 21.76V18.28Z" fill="#D3D2CF"/>
<path opacity="0.7" d="M181.976 18.28L194.546 23.26V26.71L181.976 31.63V28.15L190.796 24.97L181.976 21.76V18.28Z" fill="#D3D2CF"/>
<path opacity="0.6" d="M199.976 18.28L212.546 23.26V26.71L199.976 31.63V28.15L208.796 24.97L199.976 21.76V18.28Z" fill="#D3D2CF"/>
<path opacity="0.5" d="M217.976 18.28L230.546 23.26V26.71L217.976 31.63V28.15L226.796 24.97L217.976 21.76V18.28Z" fill="#D3D2CF"/>
<path opacity="0.4" d="M235.976 18.28L248.546 23.26V26.71L235.976 31.63V28.15L244.796 24.97L235.976 21.76V18.28Z" fill="#D3D2CF"/>
<path opacity="0.3" d="M253.976 18.28L266.546 23.26V26.71L253.976 31.63V28.15L262.796 24.97L253.976 21.76V18.28Z" fill="#D3D2CF"/>
</svg>
