<svg width="166" height="40" viewBox="0 0 166 40" fill="none" xmlns="http://www.w3.org/2000/svg">
<path d="M22.0825 31.4032C23.1554 31.3051 25.7838 30.8777 25.5491 29.2031C25.4653 28.6671 25.0798 27.4865 21.6399 28.2572C18.1934 27.49 17.8112 28.6671 17.7308 29.2031C17.4994 30.8742 20.1078 31.3016 21.1773 31.4032V32.9481H17.7308L18.0493 34.1497H25.2072L25.5257 32.9481H22.0791V31.4032H22.0825Z" fill="black"/>
<path d="M21.6461 3.76974L13.8411 5.39528L12.138 3.48948C10.3342 1.46808 7.30679 1.35597 5.3723 3.24075L4.9901 3.60509C3.05227 5.48636 2.94163 8.64984 4.73865 10.6747C4.742 10.6783 4.74536 10.6853 4.75206 10.6888L6.74019 12.6086L5.94561 15.5619C3.38418 15.7615 2.18728 16.1609 2.16717 16.1749C1.92913 16.2625 1.77826 16.5112 1.80508 16.774L2.11688 19.1422L2.25433 19.2193C2.69018 19.461 2.80082 19.8184 3.39088 21.9799L3.49482 22.3618C4.13517 24.702 4.67495 25.7284 5.73774 26.5272L7.54818 33.3656L16.6473 38.1686H26.6315L35.7306 33.3656L37.5477 26.5272C38.6139 25.7284 39.1503 24.7055 39.7907 22.3618L39.8946 21.9799C40.4847 19.8219 40.5953 19.4575 41.0312 19.2193L41.1686 19.1422L41.4838 16.774C41.5072 16.5112 41.3597 16.2625 41.1183 16.1749C41.1016 16.1749 39.9013 15.758 37.3399 15.5619L36.5486 12.6086L38.5401 10.6958C40.3506 8.68487 40.26 5.51789 38.3323 3.62611C38.3256 3.6191 38.3189 3.6121 38.3121 3.60509L37.9299 3.23374C35.9988 1.34546 32.968 1.45406 31.1643 3.46846C31.1643 3.46846 31.1576 3.47547 31.1542 3.47897L29.4511 5.38476L21.6528 3.76624M21.6528 5.93829L32.9781 8.54124L35.1607 15.4743H34.1347C32.4919 15.4883 30.8491 15.6074 29.2197 15.8351C28.3078 15.9612 27.3993 16.1224 26.494 16.3116C25.7598 16.4797 25.1697 16.6304 24.6467 16.767C23.4968 17.0648 22.7324 17.2645 21.6629 17.268H21.636C20.5632 17.268 19.8021 17.0683 18.6522 16.767C18.1325 16.6304 17.5424 16.4762 16.8049 16.3116C15.8963 16.1084 14.9877 15.9472 14.0724 15.8281C12.4431 15.6004 10.8036 15.4778 9.1608 15.4673H8.12483L10.3141 8.53774L21.6394 5.93829H21.6461H21.6528ZM6.80054 25.4412C6.32111 25.0768 5.93555 24.5969 5.67404 24.0398C5.37901 23.4057 5.19126 22.7261 5.1108 22.0289C4.76547 19.4085 5.12756 18.5256 5.37566 18.2279C5.60029 17.9581 5.88191 17.7479 6.19706 17.6148C6.77036 17.3836 7.37384 17.2399 7.99073 17.1944C8.68473 17.1243 9.38208 17.0893 10.0794 17.0963C10.7265 17.0963 11.4607 17.1173 12.2452 17.1594C12.2687 17.1594 14.8737 17.4046 16.3757 17.9476C17.1133 18.2139 18.1157 18.6448 18.3236 19.3349C18.5315 20.0251 18.3739 21.7592 17.9984 22.6841C17.5056 23.7561 16.7713 24.6879 15.8628 25.3991C15.3632 25.7529 13.9585 26.5762 11.7155 26.5762H11.6652C9.95538 26.5657 8.59085 26.338 7.59847 25.8966C7.3202 25.774 7.05198 25.6233 6.80724 25.4412M34.3124 32.143L26.2359 36.4065H17.0563L8.97976 32.143L7.73257 27.4275C8.97976 27.7358 10.2571 27.89 11.5378 27.89C12.1313 27.89 12.7213 27.8584 13.3114 27.7849C16.5434 27.3855 18.1593 25.266 18.4477 24.8456C19.088 23.9172 19.8122 22.2672 20.4358 20.7748C20.6571 20.2493 21.5321 20.2247 21.6461 20.2247C21.7601 20.2247 22.6351 20.2493 22.8564 20.7748C23.48 22.2672 24.1975 23.9172 24.8445 24.8456C25.1362 25.266 26.7589 27.3855 29.9808 27.7849C30.5709 27.8549 31.1609 27.89 31.7544 27.89C33.0351 27.89 34.3124 27.7393 35.5563 27.4275L34.3124 32.143ZM38.178 22.0289C38.0976 22.7261 37.9065 23.4057 37.6148 24.0398C37.3533 24.5934 36.9644 25.0768 36.4883 25.4412C36.2402 25.6233 35.9753 25.774 35.6971 25.8966C34.7047 26.338 33.3368 26.5657 31.6303 26.5762H31.5767C29.3337 26.5762 27.939 25.7529 27.4294 25.3991C26.5175 24.6915 25.7866 23.7596 25.2904 22.6911C24.9082 21.7697 24.7473 20.0461 24.9619 19.3419C25.1764 18.6378 26.1755 18.2209 26.9131 17.9546C28.4118 17.4116 31.0168 17.1699 31.0436 17.1664C31.8281 17.1278 32.559 17.1033 33.2094 17.1033C33.9068 17.0963 34.6041 17.1313 35.2981 17.2014C35.9116 17.2504 36.5151 17.3906 37.0918 17.6218C37.4069 17.7549 37.6886 17.9651 37.9132 18.2349C38.1613 18.5256 38.5234 19.4155 38.178 22.0324" fill="black"/>
<path d="M65.9684 23.1071C65.4386 22.4134 64.7413 21.8809 63.9433 21.5691C64.4831 21.2013 64.9391 20.7178 65.2844 20.1538C65.7571 19.3515 65.9952 18.4231 65.9751 17.4808C65.9751 15.8903 65.3783 14.6256 64.2015 13.7252C63.0247 12.8214 61.4087 12.3975 59.3234 12.3975H51.0658V31.5675H59.8296C62.0994 31.5675 63.8495 31.1121 65.0598 30.2117C66.2701 29.3114 66.9104 27.9661 66.9104 26.267C66.9104 25.0058 66.5919 23.9408 65.965 23.1071M54.1201 15.0845H59.0887C60.3392 15.0845 61.3048 15.3227 61.9619 15.7957C62.6157 16.2686 62.9074 16.9097 62.9074 17.796C62.9074 18.6824 62.5956 19.341 61.9619 19.7964C61.3249 20.2519 60.3359 20.5076 59.0887 20.5076H54.1201V15.081V15.0845ZM62.847 28.1728C62.1631 28.6388 61.1103 28.877 59.7257 28.877H54.1201V23.2051H59.7257C62.4849 23.2051 63.8294 24.137 63.8294 26.0533C63.8294 27.0307 63.5109 27.7244 62.8504 28.1728" fill="black"/>
<path d="M86.2457 16.9188V18.6565C85.7327 18.117 85.1259 17.6896 84.4553 17.3918C83.5233 16.9854 82.5242 16.7787 81.5151 16.7927C80.2578 16.7752 79.014 17.08 77.8942 17.6755C76.8314 18.2431 75.9429 19.1119 75.3328 20.1839C74.0956 22.4751 74.0956 25.2742 75.3328 27.5654C75.9463 28.6374 76.8314 29.5132 77.8908 30.0877C79.0106 30.6938 80.2545 30.9986 81.5151 30.9811C82.484 30.9881 83.4462 30.7954 84.3447 30.417C85.0018 30.1368 85.6053 29.7269 86.1182 29.2154V29.6568C86.1182 31.1738 85.7629 32.3088 85.0588 33.034C84.3548 33.7592 83.2383 34.1305 81.733 34.1305C80.7875 34.1305 79.8454 33.9694 78.9503 33.6506C78.1289 33.3738 77.3645 32.9359 76.704 32.3579L76.4794 32.1582L75.0377 34.5825L75.1953 34.7331C76.0368 35.4898 77.0258 36.0398 78.0953 36.3481C79.3023 36.723 80.5528 36.9087 81.8134 36.9052C84.1972 36.9052 86.0277 36.2851 87.2414 35.0589C88.4551 33.8363 89.0753 31.927 89.0753 29.3976V16.9188H86.2457ZM85.6086 26.122C85.2365 26.7771 84.6967 27.3061 84.053 27.6599C83.3523 28.0383 82.5778 28.2275 81.79 28.217C80.9954 28.231 80.2109 28.0418 79.5001 27.6599C78.853 27.3096 78.3166 26.7771 77.9445 26.122C77.5656 25.4424 77.3712 24.6646 77.3812 23.8764C77.3812 22.5732 77.7802 21.5537 78.5982 20.7549C79.4196 19.9562 80.4858 19.5533 81.79 19.5533C83.0942 19.5533 84.1402 19.9527 84.9549 20.7549C85.7696 21.5572 86.1752 22.5732 86.1752 23.8764C86.1853 24.6611 85.9875 25.4353 85.6086 26.115V26.122Z" fill="black"/>
<path d="M104.941 14.1884C103.576 12.9868 101.685 12.3877 99.325 12.3877H92.1101V31.5578H95.1744V25.9209H99.3284C101.689 25.9209 103.58 25.3219 104.944 24.1202C106.309 22.9186 107.023 21.244 107.023 19.1491C107.023 17.0541 106.309 15.39 104.941 14.1919M102.782 22.0568C101.984 22.7329 100.793 23.0763 99.2479 23.0763H95.161V15.2499H99.2379C100.783 15.2499 101.974 15.5932 102.772 16.2694C103.569 16.9455 103.952 17.8879 103.952 19.1631C103.952 20.4383 103.566 21.3877 102.772 22.0568H102.782Z" fill="black"/>
<path d="M133.479 18.4148C132.423 17.3288 130.991 16.7788 129.211 16.7788C128.192 16.7578 127.179 16.9645 126.241 17.3779C125.624 17.6546 125.067 18.0575 124.601 18.5585V16.9154H121.741V31.5592H124.695V24.0236C124.695 22.5943 125.057 21.4872 125.768 20.7375C126.479 19.9843 127.474 19.6095 128.722 19.6095C129.818 19.6095 130.663 19.9283 131.239 20.5624C131.813 21.1965 132.111 22.1809 132.111 23.4666V31.5627H135.068V23.1688C135.068 21.0984 134.532 19.4974 133.476 18.4113L133.482 18.4043L133.479 18.4148Z" fill="black"/>
<path d="M148.417 18.598C147.934 18.0865 147.364 17.6731 146.737 17.3788C145.862 16.976 144.917 16.7693 143.958 16.7798C142.687 16.7623 141.433 17.0846 140.32 17.7187C139.258 18.3317 138.382 19.2426 137.789 20.3461C137.165 21.5373 136.85 22.8755 136.874 24.2313C136.85 25.5906 137.165 26.9358 137.789 28.1305C138.379 29.2445 139.254 30.1589 140.32 30.7755C141.437 31.4096 142.687 31.7319 143.958 31.7143C144.944 31.7249 145.923 31.5076 146.818 31.0767C147.458 30.7649 148.035 30.3305 148.518 29.791V31.5532H151.374V10.5859L148.417 12.1694V18.598ZM147.887 26.7081C147.535 27.3983 147.006 27.9728 146.355 28.3617C144.984 29.1534 143.321 29.1534 141.95 28.3617C141.303 27.9658 140.773 27.3948 140.418 26.7081C139.663 25.1562 139.663 23.3239 140.418 21.772C140.773 21.0853 141.303 20.5178 141.95 20.1324C143.324 19.3582 144.981 19.3582 146.355 20.1324C147.006 20.5143 147.539 21.0818 147.887 21.772C148.628 23.3274 148.628 25.1562 147.887 26.7116" fill="black"/>
<path d="M118.008 18.297C116.969 17.2951 115.547 16.7871 113.539 16.7871C110.512 16.7871 108.56 18.1289 108.56 18.1289L109.875 20.4796C109.875 20.4796 111.172 19.5372 113.435 19.5372C114.371 19.5372 115.225 19.8035 115.785 20.3395C116.345 20.872 116.62 21.6532 116.62 22.6727V22.9144H112.999C111.061 22.9144 109.616 23.3138 108.708 24.116C107.028 25.6329 106.844 28.2884 108.299 30.0436C108.443 30.2188 108.604 30.3834 108.775 30.5306C109.734 31.3293 111.001 31.7322 112.567 31.7322C113.522 31.7532 114.471 31.571 115.356 31.1892C115.876 30.958 116.349 30.6216 116.744 30.2013V31.571H119.574V22.7813C119.574 20.8194 119.047 19.306 118.005 18.3005M116.62 26.9362C116.352 27.6333 115.876 28.2219 115.262 28.6143C114.572 29.0347 113.78 29.2484 112.983 29.2273C112.107 29.2273 111.424 29.0382 110.944 28.6668C110.491 28.334 110.233 27.7805 110.257 27.2024C110.257 26.7295 110.257 25.2861 113.11 25.2861H116.623V26.9362H116.62Z" fill="black"/>
<path d="M163.889 18.297C162.849 17.2951 161.428 16.7871 159.423 16.7871C156.392 16.7871 154.444 18.1289 154.444 18.1289L155.759 20.4796C155.759 20.4796 157.056 19.5372 159.319 19.5372C160.254 19.5372 161.109 19.8035 161.669 20.3395C162.229 20.872 162.504 21.6532 162.504 22.6727V22.9144H158.883C156.945 22.9144 155.5 23.3138 154.592 24.116C152.912 25.6329 152.728 28.2884 154.183 30.0436C154.327 30.2188 154.488 30.3834 154.659 30.5306C155.618 31.3293 156.885 31.7322 158.451 31.7322C159.41 31.7532 160.358 31.5675 161.244 31.1892C161.763 30.958 162.236 30.6216 162.632 30.2012V31.571H165.454V22.7848C165.454 20.8229 164.925 19.3095 163.882 18.304M162.501 26.9397C162.233 27.6368 161.756 28.2254 161.143 28.6178C160.449 29.0417 159.658 29.2519 158.856 29.2308C157.981 29.2308 157.297 29.0417 156.818 28.6703C156.365 28.3375 156.107 27.784 156.131 27.2059C156.131 26.733 156.131 25.2896 158.984 25.2896H162.501V26.9397Z" fill="black"/>
<path d="M72.0894 31.5638H69.1357V18.6752L72.0894 16.9971V31.5638Z" fill="black"/>
<path d="M70.6098 15.9059C70.1035 15.9199 69.6107 15.7202 69.2486 15.3523C68.8899 14.9985 68.6921 14.5045 68.6988 13.9896C68.6921 13.4711 68.8899 12.9736 69.2453 12.6128C69.6073 12.2344 70.1002 12.0277 70.6098 12.0417C71.1127 12.0277 71.6022 12.2204 71.971 12.5812C72.3297 12.9281 72.5309 13.4185 72.5242 13.93C72.5342 14.4555 72.3364 14.9635 71.9777 15.3313C71.6189 15.7097 71.1227 15.9199 70.6131 15.9059" fill="black"/>
</svg>
