<svg width="110" height="35" viewBox="0 0 110 35" fill="none" xmlns="http://www.w3.org/2000/svg">
<path d="M28.0963 5.25522V0.648498C28.0963 0.033618 27.4155 -0.195742 27.0349 0.187338L22.7136 4.5647C22.5623 4.71842 22.4111 5.02586 22.4111 5.25522V9.17142C22.4111 9.40078 22.3354 9.63258 22.1085 9.86194L15.8914 16.2377C15.6645 16.467 15.2838 16.6232 14.9813 16.467C14.2224 16.2377 13.3879 16.1596 12.5535 16.3914C10.8845 16.7769 9.59617 18.1579 9.21553 19.8464C8.53477 23.1477 11.3383 26.066 14.6763 25.3755C16.3452 24.9899 17.7092 23.6845 18.0874 21.9961C18.3143 21.1518 18.2387 20.3051 18.0117 19.5365C17.9361 19.2291 18.0117 18.846 18.2387 18.6167C19.527 17.3113 23.4725 13.317 24.5339 12.2409C24.6851 12.0872 24.9145 11.9335 25.2146 11.9335H29.082C29.3089 11.9335 29.6139 11.8579 29.7628 11.6261L34.0084 7.32678C34.389 6.94126 34.1597 6.25074 33.5545 6.25074H29.0039C28.472 6.25074 28.0938 5.78958 28.0938 5.25278L28.0963 5.25522ZM21.9523 18.3873C22.4062 19.8464 22.4062 21.4593 21.9523 23.1477C21.0422 26.4491 18.2362 28.9842 14.9007 29.4429C9.13745 30.2872 4.28429 25.373 5.11877 19.5365C5.57261 16.1571 8.07605 13.317 11.3359 12.3947C13.0049 11.9335 14.5957 12.0091 16.0378 12.3947C16.2647 12.4703 16.4184 12.3947 16.6453 12.2409L19.6783 9.16898C19.9808 8.86154 19.9052 8.40038 19.527 8.2491C17.4042 7.17306 14.9764 6.71434 12.3973 6.9437C6.10453 7.63422 0.873173 12.7045 0.114333 19.0778C-1.02271 28.14 6.48273 35.743 15.4327 34.5913C21.7279 33.8227 26.7323 28.5255 27.3374 22.1498C27.5643 19.539 27.1105 17.0795 26.0491 14.9298C25.8978 14.5443 25.4415 14.5443 25.139 14.7761L22.1061 17.8481C21.8791 18.0018 21.8791 18.2336 21.9548 18.3873H21.9523Z" fill="white"/>
<path d="M39.1038 17.6643C39.5966 17.3813 40.1603 17.2397 40.7947 17.2397C41.3266 17.2397 41.8195 17.3495 42.2733 17.574C42.7272 17.7985 43.142 18.1377 43.5177 18.5988L45.5014 16.7664C44.9305 16.0295 44.2473 15.5025 43.4494 15.1804C42.6515 14.8583 41.7292 14.6973 40.6776 14.6973C39.4844 14.6973 38.4181 14.951 37.4787 15.4561C36.5369 15.9612 35.7951 16.6566 35.251 17.5447C34.7069 18.4305 34.4336 19.4455 34.4336 20.5874C34.4336 21.7293 34.7069 22.7249 35.251 23.613C35.7951 24.4987 36.5369 25.1966 37.4787 25.7017C38.4181 26.2067 39.4868 26.4605 40.6776 26.4605C41.7292 26.4605 42.6515 26.2946 43.4494 25.9676C44.2473 25.6407 44.9305 25.1136 45.5014 24.3914L43.5177 22.5589C43.142 23.0201 42.7272 23.3593 42.2733 23.5837C41.8195 23.8082 41.3266 23.918 40.7947 23.918C40.1603 23.918 39.5966 23.7765 39.1038 23.4935C38.6109 23.2104 38.2254 22.82 37.9448 22.3198C37.6666 21.8196 37.5275 21.2413 37.5275 20.5874C37.5275 19.9335 37.6666 19.3333 37.9448 18.8355C38.2229 18.3353 38.6084 17.9449 39.1038 17.6619V17.6643Z" fill="white"/>
<path d="M54.4332 16.7576C54.1916 16.4892 53.9208 16.2574 53.6158 16.0768C52.9545 15.684 52.1835 15.4863 51.3002 15.4863C50.3169 15.4863 49.4263 15.7108 48.6357 16.1549C47.8452 16.6014 47.2181 17.2334 46.7569 18.0459C46.2958 18.8608 46.0664 19.8271 46.0664 20.9422C46.0664 22.0572 46.2958 23.0064 46.7569 23.8189C47.2181 24.6339 47.8452 25.2683 48.6357 25.7221C49.4263 26.176 50.3144 26.4029 51.3002 26.4029C52.2225 26.4029 53.0082 26.2052 53.6646 25.8124C54.011 25.605 54.3112 25.3366 54.5698 25.0145V26.2467H57.4685V15.6449H54.4332V16.76V16.7576ZM54.1306 22.5086C53.8915 22.9503 53.5718 23.287 53.1668 23.5237C52.7666 23.7604 52.3177 23.8775 51.8248 23.8775C51.3319 23.8775 50.8634 23.7604 50.4633 23.5237C50.0607 23.287 49.741 22.9478 49.4995 22.5086C49.2604 22.067 49.1384 21.5473 49.1384 20.9422C49.1384 20.337 49.2579 19.8002 49.4995 19.3659C49.7386 18.9316 50.0607 18.5973 50.4633 18.3606C50.8659 18.124 51.3197 18.0068 51.8248 18.0068C52.3299 18.0068 52.7666 18.1264 53.1668 18.3606C53.5694 18.5973 53.889 18.9316 54.1306 19.3659C54.3697 19.8002 54.4917 20.3248 54.4917 20.9422C54.4917 21.5595 54.3722 22.0694 54.1306 22.5086Z" fill="white"/>
<path d="M66.8067 20.8861C66.8067 21.5279 66.7042 22.0647 66.4968 22.4917C66.2894 22.9162 66.0039 23.2334 65.6404 23.4359C65.2768 23.6385 64.862 23.7434 64.396 23.7434C63.7201 23.7434 63.2004 23.536 62.8295 23.1212C62.461 22.7088 62.2756 22.0622 62.2756 21.1814V15.645H59.2402V21.6352C59.2402 22.7259 59.4281 23.6214 59.8039 24.3241C60.1796 25.0268 60.7091 25.549 61.3899 25.8906C62.0706 26.2322 62.8466 26.403 63.7152 26.403C64.5204 26.403 65.2622 26.2151 65.9429 25.8418C66.3406 25.6222 66.6774 25.3318 66.9628 24.9878V26.2444H69.842V15.6426H66.8067V20.8837H66.8018L66.8067 20.8861Z" fill="white"/>
<path d="M79.3825 20.6782C79.014 20.461 78.6017 20.2926 78.1478 20.1755C77.694 20.0584 77.2426 19.9681 76.7936 19.9096C76.3447 19.851 75.9347 19.7802 75.559 19.7022C75.1832 19.6241 74.8807 19.5167 74.6537 19.3874C74.4268 19.2581 74.3146 19.0604 74.3146 18.7969C74.3146 18.509 74.4707 18.2723 74.7831 18.0893C75.0929 17.9039 75.5883 17.8136 76.2617 17.8136C76.7424 17.8136 77.2377 17.8697 77.7501 17.982C78.2625 18.0918 78.77 18.3016 79.2776 18.6042L80.2902 16.4179C79.7973 16.1154 79.1824 15.886 78.4406 15.7298C77.7013 15.5712 76.9766 15.4932 76.2617 15.4932C75.2491 15.4932 74.3805 15.642 73.6558 15.9372C72.9287 16.2325 72.3748 16.6375 71.9917 17.1499C71.6086 17.6623 71.4159 18.2528 71.4159 18.9214C71.4159 19.524 71.5305 20.0194 71.7575 20.3976C71.9844 20.7782 72.2869 21.0808 72.6627 21.3028C73.0385 21.5273 73.4533 21.6932 73.9071 21.8054C74.3609 21.9152 74.8123 22.0055 75.2613 22.0714C75.7103 22.1373 76.1202 22.2032 76.4959 22.269C76.8717 22.3349 77.1743 22.4301 77.4012 22.5545C77.6281 22.679 77.7403 22.8668 77.7403 23.1182C77.7403 23.4207 77.5939 23.6574 77.3036 23.8258C77.0108 23.9966 76.5155 24.082 75.8152 24.082C75.1808 24.082 74.5342 23.9868 73.8778 23.7965C73.2215 23.6062 72.6554 23.3597 72.1747 23.0572L71.1621 25.2629C71.6403 25.5899 72.2918 25.8656 73.119 26.0803C73.9437 26.2975 74.8026 26.4073 75.6956 26.4073C76.7473 26.4073 77.6354 26.2609 78.3699 25.973C79.1043 25.685 79.6655 25.2873 80.0535 24.7798C80.4414 24.2747 80.6366 23.694 80.6366 23.0352C80.6366 22.4325 80.5219 21.9421 80.2877 21.5663C80.0535 21.193 79.7534 20.8978 79.3825 20.6806V20.6782Z" fill="white"/>
<path d="M89.7159 16.1446C88.8912 15.703 87.9688 15.4834 86.944 15.4834C85.9192 15.4834 84.9286 15.7152 84.0844 16.1837C83.2426 16.6497 82.5765 17.2939 82.0909 18.1137C81.6029 18.9336 81.3613 19.8778 81.3613 20.9417C81.3613 22.0055 81.6078 22.9278 82.1006 23.7501C82.5935 24.57 83.2914 25.219 84.1917 25.6924C85.0921 26.1657 86.1413 26.4 87.3345 26.4C88.2812 26.4 89.1181 26.2511 89.8428 25.9559C90.5699 25.6606 91.1726 25.2361 91.6533 24.6846L90.038 22.9132C89.6866 23.2548 89.3035 23.511 88.879 23.6818C88.4593 23.8526 87.9664 23.938 87.4101 23.938C86.7879 23.938 86.2462 23.8233 85.7875 23.5915C85.3263 23.3622 84.9701 23.0279 84.7163 22.5862C84.5797 22.3471 84.4821 22.086 84.4211 21.8079H92.334C92.3462 21.6786 92.3609 21.5346 92.373 21.3833C92.3853 21.2345 92.3926 21.0978 92.3926 20.9783C92.3926 19.8364 92.1535 18.853 91.6728 18.0332C91.1921 17.2134 90.5406 16.5814 89.7159 16.1422V16.1446ZM85.5899 18.1552C85.9851 17.9258 86.4439 17.8087 86.9636 17.8087C87.4833 17.8087 87.9371 17.9234 88.3251 18.1552C88.7131 18.3846 89.018 18.7042 89.2376 19.1117C89.384 19.3776 89.4621 19.69 89.5134 20.0169H84.3967C84.4479 19.69 84.5284 19.385 84.67 19.119C84.892 18.7066 85.197 18.3821 85.5947 18.1528L85.5899 18.1552Z" fill="white"/>
<path d="M96.7873 11.623H93.752V26.2411H96.7873V11.623Z" fill="white"/>
<path d="M106.881 15.645L103.924 22.8455L100.986 15.645H97.853L102.384 26.3322L102.347 26.4201C102.14 26.8934 101.911 27.2301 101.657 27.4351C101.403 27.6401 101.064 27.7425 100.637 27.7425C100.339 27.7425 100.037 27.684 99.7318 27.5644C99.4268 27.4473 99.156 27.2814 98.9242 27.0715L97.8164 29.2578C98.1531 29.5603 98.5874 29.797 99.1194 29.9654C99.6513 30.1337 100.191 30.2216 100.735 30.2216C101.369 30.2216 101.95 30.124 102.477 29.9263C103.001 29.7287 103.482 29.3871 103.916 28.9015C104.351 28.416 104.739 27.745 105.075 26.8934L109.802 15.6426H106.883L106.881 15.645Z" fill="white"/>
</svg>
