<svg width="361" height="88" viewBox="0 0 361 88" fill="none" xmlns="http://www.w3.org/2000/svg">
<path d="M24.9259 5.44393C32.4367 1.96106 40.8013 0.747764 48.9922 1.95299C54.8251 2.81128 60.3888 4.86982 65.344 7.96946L56.0819 17.2316C53.2858 15.8448 50.2752 14.897 47.155 14.4379C41.3962 13.5905 35.5153 14.4436 30.2347 16.8923C24.9541 19.341 20.5035 23.2789 17.4298 28.222C14.3563 33.1651 12.7933 38.8984 12.9331 44.7175C13.0728 50.5365 14.9092 56.1883 18.2165 60.9781C21.5238 65.768 26.158 69.4877 31.5501 71.6801C36.9421 73.8726 42.8573 74.4425 48.5688 73.3197C54.2545 72.202 59.4918 69.4551 63.6438 65.4148V81.0405C59.7251 83.2451 55.4609 84.8257 51.003 85.7021C42.8794 87.299 34.4661 86.4885 26.7968 83.37C19.1275 80.2516 12.536 74.961 7.83197 68.1482C3.12791 61.3354 0.516011 53.2969 0.317277 45.0202C0.118577 36.7436 2.34169 28.5891 6.71332 21.5585C11.085 14.5278 17.4151 8.92683 24.9259 5.44393Z" fill="url(#paint0_radial_201_4624)"/>
<path d="M81.8432 64.7853L72.5434 74.2876V47.0314L81.8432 37.7315V64.7853Z" fill="url(#paint1_radial_201_4624)"/>
<path d="M42.6234 27.5691C39.3234 27.5691 36.0997 28.5629 33.3723 30.421C30.6451 32.279 28.5403 34.9152 27.3324 37.9862L20.8197 35.4248C22.542 31.0457 25.5432 27.2866 29.4321 24.6372C33.3211 21.9878 37.9178 20.5707 42.6234 20.5707V27.5691Z" fill="url(#paint2_radial_201_4624)"/>
<path d="M78.367 17.239C78.9492 19.3126 80.5696 20.9332 82.6432 21.5154L86.3948 22.5686L82.6432 23.6218C80.5696 24.2039 78.9492 25.8245 78.367 27.8981L77.3136 31.6498L76.2604 27.8981C75.6783 25.8245 74.0577 24.2039 71.9841 23.6218L68.2324 22.5686L71.9841 21.5154C74.0577 20.9332 75.6783 19.3126 76.2604 17.239L77.3136 13.4874L78.367 17.239Z" fill="url(#paint3_radial_201_4624)"/>
<path d="M144.528 21.8436C153.498 21.8436 161.018 26.4639 164.551 33.712L157.937 37.5171C155.672 32.7154 150.598 29.5442 144.528 29.5442C139.998 29.5442 136.193 31.0848 133.112 34.1652C130.122 37.2457 128.582 41.0512 128.582 45.6718C128.582 50.2018 130.122 54.0074 133.112 57.0878C136.193 60.1683 139.998 61.708 144.528 61.7081C150.599 61.7081 155.673 58.6276 158.21 53.8256L164.914 57.722C161.018 64.8795 153.317 69.5 144.528 69.5C137.733 69.5 132.025 67.2351 127.495 62.705C122.965 58.0843 120.7 52.4669 120.7 45.6718C120.7 38.8767 122.965 33.2591 127.495 28.7291C132.025 24.1084 137.733 21.8436 144.528 21.8436Z" fill="#FAF8F6"/>
<path d="M242 33.3974C243.841 33.3975 245.652 33.8686 247.26 34.7662C248.867 35.6639 250.219 36.9581 251.185 38.5256L248.568 40.1385C247.877 39.0175 246.911 38.0918 245.761 37.4499C244.612 36.808 243.317 36.4704 242 36.4704V33.3974Z" fill="#FAF8F6"/>
<path fill-rule="evenodd" clip-rule="evenodd" d="M241.147 21.8436C247.761 21.8436 253.469 24.1084 258.09 28.7291C262.71 33.3498 265.066 38.9672 265.066 45.6718C265.066 52.3763 262.71 57.9938 258.09 62.6145C253.469 67.235 247.761 69.5 241.147 69.5C234.533 69.4999 228.826 67.2349 224.205 62.6145C219.584 57.9938 217.319 52.3763 217.319 45.6718C217.319 38.9672 219.584 33.3498 224.205 28.7291C228.826 24.1085 234.533 21.8436 241.147 21.8436ZM241.147 29.5442C236.707 29.5443 232.902 31.0849 229.822 34.1652C226.742 37.2457 225.201 41.0511 225.201 45.6718C225.201 50.2924 226.742 54.0979 229.822 57.1783C232.902 60.2586 236.708 61.7985 241.147 61.7985C245.677 61.7985 249.482 60.2587 252.563 57.1783C255.643 54.0979 257.184 50.2924 257.184 45.6718C257.184 41.0511 255.643 37.2457 252.563 34.1652C249.482 31.0848 245.677 29.5442 241.147 29.5442Z" fill="#FAF8F6"/>
<path d="M296.361 33.3974C298.202 33.3974 300.013 33.8686 301.621 34.7662C303.228 35.6639 304.58 36.9581 305.546 38.5256L302.93 40.1385C302.239 39.0175 301.272 38.0918 300.122 37.4499C298.973 36.8079 297.678 36.4704 296.361 36.4704V33.3974Z" fill="#FAF8F6"/>
<path fill-rule="evenodd" clip-rule="evenodd" d="M295.65 21.8436C302.264 21.8436 307.972 24.1084 312.592 28.7291C317.213 33.3498 319.569 38.9672 319.569 45.6718C319.569 52.3763 317.213 57.9938 312.592 62.6145C307.972 67.2351 302.264 69.5 295.65 69.5C289.036 69.4999 283.328 67.2349 278.708 62.6145C274.087 57.9938 271.822 52.3763 271.822 45.6718C271.822 38.9672 274.087 33.3498 278.708 28.7291C283.328 24.1085 289.036 21.8436 295.65 21.8436ZM295.65 29.5442C291.21 29.5443 287.405 31.0849 284.325 34.1652C281.245 37.2457 279.704 41.0511 279.704 45.6718C279.704 50.2924 281.245 54.0979 284.325 57.1783C287.405 60.2586 291.211 61.7985 295.65 61.7985C300.18 61.7985 303.985 60.2587 307.066 57.1783C310.146 54.0979 311.687 50.2924 311.687 45.6718C311.687 41.0511 310.146 37.2457 307.066 34.1652C303.985 31.0848 300.18 29.5442 295.65 29.5442Z" fill="#FAF8F6"/>
<path d="M342.747 21.8436C350.085 21.8436 356.156 25.3767 359.055 31.2658L352.441 34.9804C350.81 31.0846 347.549 29.1823 342.747 29.1823C338.307 29.1823 334.683 31.3568 334.683 35.2526C334.684 38.7859 338.67 40.6887 343.653 42.0477C350.72 43.5879 360.143 46.2156 360.052 55.91C360.052 59.9869 358.421 63.3392 355.25 65.7854C352.079 68.2316 348.093 69.5 343.109 69.5C334.321 69.5 327.707 65.3325 325.079 58.8999L331.874 55.0035C333.324 59.3524 337.583 62.0708 343.109 62.0708C348.274 62.0708 352.079 60.168 352.079 55.91C352.079 52.3765 348.093 50.3833 343.109 49.2054C335.952 47.3028 326.711 44.9468 326.71 35.3431C326.71 31.4473 328.25 28.1855 331.24 25.6486C334.321 23.1118 338.126 21.8436 342.747 21.8436Z" fill="#FAF8F6"/>
<path d="M180.579 68.3221H172.696V34.1802H180.579V68.3221Z" fill="#FAF8F6"/>
<path d="M214.621 30.4506C210.725 30.2694 207.463 31.266 204.654 33.5311C201.846 35.7961 200.486 39.3299 200.486 44.3129V68.3221H192.604V23.0214H200.486V30.6316C203.114 25.0143 207.826 22.2055 214.621 22.2055V30.4506Z" fill="#FAF8F6"/>
<path d="M176.683 18.5C179.582 18.5 181.938 20.9464 181.938 23.8457C181.938 26.7449 179.582 29.1001 176.683 29.1001C173.693 29.1001 171.337 26.7449 171.337 23.8457C171.337 20.9464 173.693 18.5 176.683 18.5Z" fill="#FAF8F6"/>
<defs>
<radialGradient id="paint0_radial_201_4624" cx="0" cy="0" r="1" gradientUnits="userSpaceOnUse" gradientTransform="translate(3.05811 79.6878) rotate(-41.4874) scale(108.565 229.902)">
<stop stop-color="#F8A078"/>
<stop offset="0.475962" stop-color="#F5773E"/>
<stop offset="1" stop-color="#F45D16"/>
</radialGradient>
<radialGradient id="paint1_radial_201_4624" cx="0" cy="0" r="1" gradientUnits="userSpaceOnUse" gradientTransform="translate(3.05811 79.6878) rotate(-41.4874) scale(108.565 229.902)">
<stop stop-color="#F8A078"/>
<stop offset="0.475962" stop-color="#F5773E"/>
<stop offset="1" stop-color="#F45D16"/>
</radialGradient>
<radialGradient id="paint2_radial_201_4624" cx="0" cy="0" r="1" gradientUnits="userSpaceOnUse" gradientTransform="translate(3.05811 79.6878) rotate(-41.4874) scale(108.565 229.902)">
<stop stop-color="#F8A078"/>
<stop offset="0.475962" stop-color="#F5773E"/>
<stop offset="1" stop-color="#F45D16"/>
</radialGradient>
<radialGradient id="paint3_radial_201_4624" cx="0" cy="0" r="1" gradientUnits="userSpaceOnUse" gradientTransform="translate(3.05811 79.6878) rotate(-41.4874) scale(108.565 229.902)">
<stop stop-color="#F8A078"/>
<stop offset="0.475962" stop-color="#F5773E"/>
<stop offset="1" stop-color="#F45D16"/>
</radialGradient>
</defs>
</svg>
