<svg width="390" height="121" viewBox="0 0 390 121" fill="none" xmlns="http://www.w3.org/2000/svg">
<path d="M83.4049 12.2663H86.4715C87.4982 12.2663 88.0791 12.8472 88.0791 13.8739L88.3762 43.2018C88.3762 44.3636 87.4981 45.2416 86.3364 45.2416H81.8109C80.5005 45.2416 79.6224 44.6608 79.0415 43.3504C73.0571 28.7607 64.4518 18.6966 48.8354 18.6966C29.2879 18.6966 19.5074 35.6233 19.5074 55.9002C19.5074 80.9998 31.76 106.383 57.0083 106.383C75.8264 106.383 86.0392 93.2524 91.5914 78.3656C92.0237 77.3389 93.0504 76.9066 94.0771 77.3389L99.0349 79.5274C99.7643 79.9596 100.062 81.1349 99.7643 82.013C94.2256 102.736 79.0415 120.392 53.3744 120.392C20.1153 120.392 1 94.2791 1 64.5189C1 37.2308 18.94 9.36189 49.4433 9.36189C63.4521 9.36189 73.9486 13.8874 77.4609 13.8874C80.6761 13.8874 80.6761 12.2798 83.4455 12.2798L83.4049 12.2663Z" fill="white"/>
<path d="M124.632 7.74061C125.51 6.86253 126.239 6.57886 127.401 6.57886H129.887C131.048 6.72746 131.643 7.45693 131.643 8.4701L131.494 98.6288C131.494 106.505 134.263 109.274 141.856 110.449C143.166 110.598 143.747 111.476 143.612 112.638L143.314 115.704C143.166 116.731 142.436 117.46 141.275 117.46H103.922C102.76 117.46 102.031 116.731 101.882 115.704L101.585 112.638C101.437 111.462 102.017 110.598 103.341 110.449C110.933 109.287 113.986 106.505 113.986 98.6288L113.838 37.055C113.838 31.6515 110.19 28.3012 105.233 27.4232C103.922 27.126 103.341 26.5451 103.341 25.3833V22.4654C103.341 21.3036 103.774 20.5741 104.8 20.1283C114.284 16.1837 118.661 13.1307 124.645 7.72709L124.632 7.74061Z" fill="white"/>
<path d="M147.746 84.4849C147.746 64.3566 161.309 48.7402 180.573 48.7402C194.865 48.7402 201.728 58.3721 204.065 67.7068C204.214 68.2877 204.362 69.1657 204.362 70.0438V72.0837C204.362 73.2455 203.781 73.9749 202.903 74.2721L165.267 88.5646C168.334 98.1965 175.777 104.613 187.152 104.316C193.717 104.167 200.283 100.817 204.511 95.7108C205.24 94.8327 206.402 94.4005 207.577 95.13L209.617 96.5889C210.495 97.3184 210.644 98.4802 210.198 99.3583C206.254 108.842 196.635 119.487 181.019 119.635C161.174 119.784 147.76 103.289 147.76 84.4714L147.746 84.4849ZM186.706 71.057C188.016 63.7622 184.22 57.494 176.642 57.494C165.402 57.494 160.89 69.1657 164.241 81.2698L186.706 71.057Z" fill="white"/>
<path d="M264.656 51.3616C270.492 51.3616 274.572 54.8604 274.572 60.8448C274.572 64.4922 272.964 67.2616 270.492 69.1663L263.927 74.1241C263.049 74.705 261.887 74.2727 261.59 73.3946C260.563 70.4767 258.375 68.2883 255.173 68.2883C251.526 68.2883 247.446 69.8013 244.231 77.3933V98.6429C244.231 107.099 248.175 109.288 255.754 110.463C257.064 110.612 257.645 111.49 257.51 112.652L257.213 115.718C257.064 116.745 256.335 117.474 255.173 117.474H217.969C216.807 117.474 216.078 116.745 215.929 115.718L215.632 112.652C215.483 111.476 216.064 110.612 217.388 110.463C224.98 109.301 227.169 106.519 227.169 98.6429L227.02 76.6098C227.02 71.2062 223.521 67.856 218.563 66.9779C217.253 66.6807 216.672 66.0998 216.672 64.938V61.8715C216.672 60.8448 217.105 60.1154 218.131 59.6831C227.466 56.3328 235.274 55.009 243.001 49.038C244.163 48.1599 244.893 47.8762 245.771 47.8762C246.797 47.8762 247.527 48.7543 247.081 49.7675C243.136 59.1022 241.461 61.8985 238.989 72.7057C245.703 60.6017 256.794 51.3751 264.67 51.3751L264.656 51.3616Z" fill="white"/>
<path d="M307.05 49.0241C307.928 48.2946 308.509 47.8623 309.387 47.8623C310.117 47.8623 310.697 48.2946 310.697 49.0241L310.549 98.6289C310.549 106.505 313.318 109.274 320.91 110.449C322.221 110.598 322.801 111.476 322.666 112.638L322.369 115.704C322.221 116.731 321.491 117.46 320.329 117.46H282.977C281.815 117.46 281.086 116.731 280.937 115.704L280.64 112.638C280.491 111.462 281.072 110.598 282.396 110.449C289.988 109.287 293.487 106.505 293.487 98.6289L293.338 78.352C293.338 72.9484 289.394 69.7468 284.436 68.8687C283.126 68.5715 282.545 67.9906 282.545 66.8288V64.6404C282.545 63.4786 282.977 62.7492 284.004 62.3034C293.487 58.8046 299.904 54.5762 307.05 49.0241Z" fill="white"/>
<path d="M375.223 73.0969C374.493 73.6777 373.615 74.1236 372.454 74.1236H370.995C370.117 74.1236 369.387 73.6912 369.103 72.6646C366.766 64.6403 363.7 58.0749 355.392 58.0749C347.516 58.0749 342.693 65.5183 342.693 75.0016C342.693 91.7797 351.447 104.032 367.063 104.032C373.629 104.032 379.613 101.263 383.842 96.1566C384.571 95.2786 385.733 94.8462 386.908 95.5757L388.948 97.0347C389.826 97.7642 389.975 98.926 389.529 99.804C385.584 109.287 375.966 119.649 360.35 119.649C340.073 119.649 326.645 103.749 326.645 84.3363C326.645 63.0327 341.383 48.7402 361.079 48.7402C368.077 48.7402 374.791 50.7801 379.168 54.7247C383.977 58.6693 385.152 65.2346 380.194 69.1658L375.236 73.1104L375.223 73.0969Z" fill="white"/>
<path d="M303.006 1.32421L306.681 10.6454C307.464 12.6447 309.058 14.2253 311.058 15.0223L320.379 18.6967C321.622 19.1831 321.622 20.9392 320.379 21.4255L311.058 25.1C309.058 25.8835 307.478 27.4775 306.681 29.4768L303.006 38.798C302.52 40.0408 300.764 40.0408 300.277 38.798L296.603 29.4768C295.819 27.4775 294.225 25.897 292.226 25.1L282.905 21.4255C281.662 20.9392 281.662 19.1831 282.905 18.6967L292.226 15.0223C294.225 14.2388 295.806 12.6447 296.603 10.6454L300.277 1.32421C300.764 0.0813841 302.52 0.0813841 303.006 1.32421Z" fill="white"/>
</svg>
