<svg width="500" height="500" viewBox="0 0 500 500" fill="none" xmlns="http://www.w3.org/2000/svg">
<path d="M370.955 169.087C414.185 164.216 449.181 183.936 470.869 214.233C480.528 227.724 487.45 243.265 491.162 259.552V259.635C494.869 275.916 495.423 293.111 492.365 309.928C484.372 353.846 452.479 394.611 388.871 409.41L386.335 410H101.948L99.9605 409.747C62.1702 404.927 34.2758 383.538 18.785 355.929C10.253 340.724 5.52877 323.521 5.04133 306.094C4.55295 288.6 8.38454 270.899 16.9576 254.776C30.2511 229.774 54.5931 208.88 91.4056 199.057C100.709 165.687 119.188 139.774 142.648 121.525C165.448 103.789 192.922 93.4711 221.181 90.7359C249.239 88.017 278.171 92.8235 304.111 105.295C331.157 118.304 354.884 139.521 370.955 169.087Z" fill="#456583"/>
<g clip-path="url(#clip0_9078_270)">
<path fill-rule="evenodd" clip-rule="evenodd" d="M181.664 288.419L155.613 314.472L138.247 331.841V357.894L112.196 401.316L129.563 410L190.347 349.21L181.664 288.419ZM138.247 244.997L77.4626 236.313L16.6787 297.103L25.3621 314.472L68.7792 288.419H94.8295L112.196 271.05L138.247 244.997Z" fill="#C1C1C1"/>
<path d="M60.0957 323.156C42.9937 348.115 16.7915 378.888 16.6786 392.631C16.5874 403.066 23.5212 410.091 34.0455 410C48.0127 409.883 77.5103 383.812 103.513 366.578L60.0957 323.156Z" fill="#9A5F68"/>
<path d="M86.1462 314.472C69.0442 339.431 34.0457 370.204 34.0457 383.947C34.0457 393.026 34.9183 392.631 42.7291 392.631C56.6964 392.631 86.1939 357.759 112.196 340.525L86.1462 314.472Z" fill="#B76E79"/>
<path d="M277.181 132.1C249.889 133.789 202.773 137.037 146.93 192.891C105.853 233.972 69.8169 293.708 52.9233 333.347L93.5921 374.021C133.006 357.29 192.34 321.159 233.764 279.735C289.247 224.246 292.408 176.959 294.548 149.469C295.503 137.198 288.531 131.397 277.181 132.1Z" fill="#5A8FA1"/>
<path d="M277.181 132.1C249.889 133.789 202.773 137.037 146.93 192.891C113.395 226.426 83.2632 272.383 64.0989 309.717L117.22 362.844C154.324 343.73 199.994 313.508 233.764 279.735C289.247 224.246 292.408 176.959 294.548 149.469C295.503 137.198 288.531 131.397 277.181 132.1Z" fill="white"/>
<path d="M225.081 236.313C244.264 236.313 259.815 220.76 259.815 201.575C259.815 182.39 244.264 166.838 225.081 166.838C205.898 166.838 190.347 182.39 190.347 201.575C190.347 220.76 205.898 236.313 225.081 236.313Z" fill="#384D72"/>
<path d="M225.081 218.944C234.672 218.944 242.448 211.168 242.448 201.575C242.448 191.983 234.672 184.206 225.081 184.206C215.489 184.206 207.714 191.983 207.714 201.575C207.714 211.168 215.489 218.944 225.081 218.944Z" fill="white"/>
</g>
<defs>
<clipPath id="clip0_9078_270">
<rect width="277.956" height="277.956" fill="white" transform="translate(16.6787 132.044)"/>
</clipPath>
</defs>
</svg>
