<svg width="104" height="104" viewBox="0 0 104 104" fill="none" xmlns="http://www.w3.org/2000/svg">
<path d="M67.8301 69.6601C63.6501 72.9701 58.3901 74.9501 52.6501 74.9501C39.0201 74.9501 28.0501 63.8101 28.0501 50.0101C28.0501 44.3801 29.8801 39.2001 32.9601 35.0301L15.9101 18.1001C7.95012 26.5401 3.12012 37.7301 3.12012 50.0101C3.12012 76.2801 25.2301 97.5501 52.6601 97.5501C64.8701 97.5501 76.0201 93.3401 84.6301 86.3401L67.8401 69.6701H67.8301V69.6601Z" fill="#F7F7F7"/>
<path d="M42.27 3.51C33.41 5.32 25.43 9.39 19.02 15.08L38.41 29.65C42.43 26.76 47.34 25.07 52.65 25.07C66.28 25.07 77.25 36.21 77.25 50C77.25 52.77 76.81 55.43 75.99 57.91L96.03 72.97C98.08 69.41 99.67 65.57 100.71 61.53L42.27 3.5V3.51Z" fill="#00C58F"/>
<path d="M52.65 2.46997C51.66 2.46997 50.69 2.49997 49.72 2.55997L101.36 41.39C97.15 19.24 76.99 2.46997 52.64 2.46997H52.65Z" fill="#F89381"/>
</svg>
