<svg width="102" height="96" viewBox="0 0 102 96" fill="none" xmlns="http://www.w3.org/2000/svg">
<path fill-rule="evenodd" clip-rule="evenodd" d="M96.4178 9.05886C92.8537 10.5351 79.7032 17.029 83.3457 29.4815L90.2899 55.9699C93.785 70.0727 80.9252 86.9853 44.0881 86.9853L75.6825 54.8058L71.0347 39.374L58.9999 51.6126L53.5267 33.6829C63.7355 19.4107 69.8678 13.2112 79.1776 10.6689C84.0099 9.22388 89.4736 8.87599 96.4178 9.05886ZM42.9952 44.3875L48.4687 62.3171C38.2645 76.5894 32.1273 82.7888 22.8178 85.3314C17.9855 86.7764 12.5215 87.124 5.58203 86.9411C9.16013 85.4649 22.306 78.9712 18.6449 66.5185L11.7008 40.0302C8.21028 25.9274 21.0749 9.01925 57.9117 9.01925L26.3175 41.1943L30.9654 56.6261L42.9952 44.3875Z" fill="#1767F2"/>
</svg>
