<svg xmlns="http://www.w3.org/2000/svg" width="18" height="18" fill="none"><g clip-path="url(#a)"><path fill="#000" d="M13.997 8.368 13.366 9l-1.868 1.867-1.73-1.73L9.632 9l1.866-1.867.632-.631.611-.612h3.734l-1.57 1.572-.908.906ZM12.74 12.11l-.611-.612 1.867-1.866 2.478 2.478H12.74Zm4.366 4.997h-4.104v-4.104h4.104v4.104ZM5.89 16.476V12.74l.61-.611 1.867 1.867-2.477 2.479ZM1.525 12.11l2.478-2.478 1.867 1.866-.611.612H1.525Zm3.472 4.997H.893v-4.104h4.104v4.104ZM.893.893h4.104v4.104H.893V.893ZM11.498 12.13l.612.611v3.734l-2.478-2.478L9 13.366l-2.498-2.498L1.525 5.89h3.734l2.973 2.973.136.137.632.632 1.867 1.866.631.632ZM7.024 2.658 9 4.634l1.867 1.868L9 8.369l-3.11-3.11V1.524l1.134 1.133Zm5.086-1.133v3.734l-.612.611-1.866-1.867 2.478-2.478Zm4.997 3.472h-4.104V.893h4.104v4.104Zm.631.893L18 5.628V0h-5.628L9 3.372 6.782 1.154 5.89.262 5.628 0H0v5.628L3.372 9 0 12.372V18h5.628l.263-.262L9 14.628 12.372 18H18v-5.628L14.628 9l3.11-3.11ZM29.16 16.656h-2.328V1.974h2.328v14.682Zm8.558-10.928c1.217 0 2.21.427 2.979 1.28.768.852 1.153 1.936 1.153 3.25v6.398h-2.202v-6.062c0-.825-.266-1.507-.797-2.045-.532-.538-1.189-.808-1.972-.808-.88 0-1.601.27-2.16.808-.56.538-.84 1.22-.84 2.045v6.062h-2.202V5.938h2.203v2.768c.293-.923.779-1.65 1.457-2.181.678-.531 1.472-.797 2.381-.797Zm9.9 10.928h-2.202V7.888H43.13v-1.95h2.286v-.881c0-1.329.328-2.314.985-2.958.658-.642 1.678-.964 3.063-.964h1.174v1.95h-1.174c-.644 0-1.112.147-1.406.44-.293.295-.44.77-.44 1.427v.986h3.02v1.95h-3.02v8.768ZM54.58 5.938v2.831c.35-1.272.898-2.132 1.646-2.58.748-.447 1.598-.558 2.549-.335v2.098c-1.162-.322-2.15-.221-2.968.304-.819.524-1.227 1.304-1.227 2.338v6.062h-2.203V5.938h2.203Zm8.599 9.144c.909 0 1.678-.304 2.307-.912.63-.608.944-1.317.944-2.129v-.587c-.168.28-.574.455-1.216.524l-2.035.252c-.532.07-.954.227-1.269.472-.315.245-.472.577-.472.996 0 .42.157.756.472 1.007.315.252.737.377 1.269.377Zm1.09-9.354c1.287 0 2.336.336 3.147 1.007.81.67 1.216 1.636 1.216 2.894v7.027H66.43v-2.853c-.657 2.042-1.979 3.062-3.964 3.062-.923 0-1.692-.276-2.307-.828-.616-.552-.923-1.276-.923-2.17 0-1.05.37-1.836 1.111-2.36.741-.525 1.685-.85 2.832-.976l2.076-.21c.783-.07 1.175-.42 1.175-1.048 0-.517-.2-.93-.598-1.238-.398-.307-.92-.461-1.562-.461-.658 0-1.214.167-1.668.503-.454.336-.744.825-.87 1.468l-2.181-.524c.195-1.007.72-1.807 1.572-2.402.853-.594 1.902-.891 3.147-.891Zm12.501 9.103c.923 0 1.702-.339 2.339-1.017.636-.678.954-1.514.954-2.507 0-1.006-.318-1.849-.954-2.527-.637-.678-1.416-1.018-2.339-1.018-1.02 0-1.863.336-2.527 1.007-.665.672-.996 1.518-.996 2.538 0 1.007.331 1.846.996 2.517.664.671 1.506 1.007 2.527 1.007Zm.735-9.103c1.384 0 2.537.535 3.46 1.605.923 1.07 1.384 2.394 1.384 3.974s-.46 2.902-1.384 3.964c-.923 1.063-2.076 1.594-3.46 1.594-1.007 0-1.885-.297-2.633-.891-.748-.594-1.29-1.402-1.625-2.422v3.104h-2.203V1.135h2.203v7.907c.335-1.02.877-1.828 1.625-2.423.748-.594 1.626-.891 2.633-.891Zm10.256 9.354c.909 0 1.678-.304 2.307-.912.63-.608.944-1.317.944-2.129v-.587c-.168.28-.573.455-1.217.524l-2.034.252c-.532.07-.954.227-1.27.472-.314.245-.47.577-.47.996 0 .42.156.756.47 1.007.316.252.738.377 1.27.377Zm1.09-9.354c1.287 0 2.336.336 3.147 1.007.81.67 1.216 1.636 1.216 2.894v7.027h-2.202v-2.853c-.657 2.042-1.98 3.062-3.964 3.062-.923 0-1.693-.276-2.307-.828-.616-.552-.923-1.276-.923-2.17 0-1.05.37-1.836 1.111-2.36.741-.525 1.685-.85 2.832-.976l2.076-.21c.783-.07 1.175-.42 1.175-1.048 0-.517-.2-.93-.598-1.238-.398-.307-.92-.461-1.563-.461-.657 0-1.213.167-1.667.503-.454.336-.745.825-.87 1.468l-2.182-.524c.196-1.007.72-1.807 1.574-2.402.852-.594 1.9-.891 3.146-.891Zm6.146 8.096 2.202-.461c.196 1.146.979 1.72 2.35 1.72.699 0 1.261-.137 1.688-.41.426-.272.639-.618.639-1.038 0-.447-.223-.786-.671-1.017-.447-.23-.993-.399-1.636-.503a28.113 28.113 0 0 1-1.94-.388 3.334 3.334 0 0 1-1.646-.913c-.448-.454-.671-1.066-.671-1.835 0-.937.401-1.713 1.206-2.328.803-.615 1.813-.923 3.03-.923 1.217 0 2.213.273 2.989.818a3.264 3.264 0 0 1 1.395 2.223l-2.202.462c-.168-1.147-.896-1.72-2.182-1.72-.587 0-1.07.126-1.447.377-.377.252-.566.58-.566.986 0 .364.16.657.482.881.322.224.727.37 1.216.44.49.07 1.018.175 1.584.315.567.14 1.094.297 1.584.472.489.175.894.486 1.217.933.321.448.482 1.007.482 1.678 0 .938-.438 1.717-1.311 2.34-.874.622-1.955.932-3.24.932-1.273 0-2.308-.272-3.105-.818-.797-.545-1.28-1.286-1.447-2.223Zm16.15-6.187c-.811 0-1.514.248-2.108.744-.594.497-.989 1.143-1.185 1.94h6.586c-.182-.797-.57-1.443-1.164-1.94-.595-.496-1.304-.744-2.129-.744Zm0-1.91c1.72 0 3.118.616 4.195 1.847 1.076 1.23 1.517 2.72 1.321 4.467h-8.872c.154.868.553 1.57 1.196 2.108.643.539 1.419.808 2.328.808.699 0 1.324-.171 1.877-.514a3.552 3.552 0 0 0 1.29-1.395l1.846.818a5.551 5.551 0 0 1-2.035 2.181c-.881.546-1.895.818-3.041.818-1.608 0-2.958-.53-4.048-1.593-1.091-1.063-1.636-2.384-1.636-3.965 0-1.58.535-2.905 1.604-3.974 1.07-1.07 2.395-1.605 3.975-1.605Z"/></g><defs><clipPath id="a"><path fill="#fff" d="M0 0h18v18H0z"/></clipPath></defs></svg>