<svg width="29" height="29" viewBox="0 0 29 29" fill="none" xmlns="http://www.w3.org/2000/svg">
<path d="M22.192 1.63169C22.4565 1.01595 23.3295 1.01595 23.594 1.63169L24.6072 3.9899C24.6843 4.16947 24.8275 4.31259 25.007 4.38974L27.3652 5.40291C27.981 5.66745 27.981 6.54042 27.3652 6.80497L25.007 7.81813C24.8275 7.89528 24.6843 8.0384 24.6072 8.21798L23.594 10.5762C23.3295 11.1919 22.4565 11.1919 22.192 10.5762L21.1788 8.21798C21.1017 8.0384 20.9585 7.89528 20.779 7.81813L18.4208 6.80497C17.805 6.54042 17.805 5.66745 18.4208 5.40291L20.779 4.38974C20.9585 4.31259 21.1017 4.16947 21.1788 3.9899L22.192 1.63169Z" fill="url(#paint0_linear_3017_609)"/>
<path d="M22.1849 18.5565C22.4411 17.9181 23.3449 17.9181 23.6011 18.5565L24.5196 20.8454C24.5972 21.0386 24.7503 21.1918 24.9436 21.2693L27.2324 22.1878C27.8709 22.444 27.8709 23.3478 27.2324 23.604L24.9436 24.5226C24.7503 24.6001 24.5972 24.7533 24.5196 24.9465L23.6011 27.2354C23.3449 27.8738 22.4411 27.8738 22.1849 27.2354L21.2664 24.9465C21.1888 24.7533 21.0357 24.6001 20.8424 24.5226L18.5536 23.604C17.9151 23.3478 17.9151 22.444 18.5536 22.1878L20.8424 21.2693C21.0357 21.1918 21.1888 21.0386 21.2664 20.8454L22.1849 18.5565Z" fill="url(#paint1_linear_3017_609)"/>
<path d="M10.7458 4.68735C11.0103 4.07161 11.8833 4.07161 12.1479 4.68736L14.7661 10.7814C14.8432 10.961 14.9864 11.1041 15.1659 11.1813L21.26 13.7995C21.8758 14.0641 21.8758 14.937 21.26 15.2016L15.1659 17.8198C14.9864 17.897 14.8432 18.0401 14.7661 18.2196L12.1479 24.3137C11.8833 24.9295 11.0103 24.9295 10.7458 24.3137L8.12757 18.2196C8.05042 18.0401 7.9073 17.897 7.72773 17.8198L1.63364 15.2016C1.0179 14.937 1.0179 14.0641 1.63364 13.7995L7.72773 11.1813C7.9073 11.1041 8.05042 10.961 8.12757 10.7814L10.7458 4.68735Z" fill="url(#paint2_linear_3017_609)"/>
<defs>
<linearGradient id="paint0_linear_3017_609" x1="26.3519" y1="2.8485" x2="19.841" y2="9.1559" gradientUnits="userSpaceOnUse">
<stop stop-color="#34B7A3"/>
<stop offset="1" stop-color="#479EB3"/>
</linearGradient>
<linearGradient id="paint1_linear_3017_609" x1="26.3519" y1="19.6405" x2="19.841" y2="25.9479" gradientUnits="userSpaceOnUse">
<stop stop-color="#34B7A3"/>
<stop offset="1" stop-color="#479EB3"/>
</linearGradient>
<linearGradient id="paint2_linear_3017_609" x1="17.9323" y1="8.39661" x2="5.72439" y2="20.223" gradientUnits="userSpaceOnUse">
<stop stop-color="#3DABAB"/>
<stop offset="1" stop-color="#6873CF"/>
</linearGradient>
</defs>
</svg>
