<svg width="87" height="64" viewBox="0 0 87 64" fill="none" xmlns="http://www.w3.org/2000/svg">
<path d="M31.999 18.8842C39.2395 18.8842 45.1316 24.7763 45.1316 32.0168C45.1316 34.9471 44.1595 37.6438 42.529 39.8416H86.7498C86.7498 26.8858 76.2483 16.3843 63.2925 16.3843H32.0133V18.8985L31.999 18.8842Z" fill="#FA551E"/>
<path d="M31.9993 37.6582C35.1206 37.6582 37.6548 35.1269 37.6548 32.0027C37.6548 28.8785 35.1235 26.3472 31.9993 26.3472C28.875 26.3472 26.3438 28.8785 26.3438 32.0027C26.3438 35.1269 28.875 37.6582 31.9993 37.6582Z" fill="#242321"/>
<path d="M58.5408 39.8272C57.3436 43.8807 55.2199 47.5466 52.4377 50.5995C51.9588 51.1212 51.1493 51.1554 50.6561 50.6451L46.4801 46.469C44.6985 44.6874 44.3393 41.9537 45.585 39.7645C47.1385 37.0593 47.9025 33.8268 47.5718 30.4004C46.8392 22.9833 40.7647 17.0256 33.3304 16.4127C27.3442 15.9196 22.008 18.8072 18.9835 23.3538H18.9693C14.3457 30.5486 12.6439 37.5496 12.6097 43.9092C12.6097 45.5426 14.568 46.3636 15.7225 45.2119L23.5929 37.3415C22.2902 35.3062 21.6944 32.7778 22.2018 30.1011C22.9658 26.0476 26.2553 22.8151 30.3231 22.1423C37.1445 21.0221 42.9938 26.8543 41.8707 33.69C41.198 37.7577 37.9654 41.0501 33.9119 41.8112C31.2353 42.3044 28.7068 41.7229 26.6715 40.4201L15.0327 52.059C14.4768 52.6149 13.5817 52.6149 13.0116 52.059C6.95131 46.3151 3.46793 37.8632 4.54544 28.6616C6.04483 15.8882 16.4579 5.71455 29.2798 4.4717C39.8411 3.45405 49.3392 8.42258 54.798 16.3642H59.9148C54.3362 6.44999 43.638 -0.206069 31.4348 0.00487296C13.9751 0.321285 -0.175097 14.9048 0.00163773 32.3474C0.178373 49.7899 14.4682 64 31.9992 64C46.9419 64 59.5385 53.6952 63.0219 39.8101H58.5208L58.5351 39.8244H58.5379L58.5408 39.8272Z" fill="#242321"/>
</svg>