<svg width="491" height="138" viewBox="0 0 491 138" fill="none" xmlns="http://www.w3.org/2000/svg">
<rect y="14" width="172" height="112" fill="#FF0000"/>
<path d="M83.6836 107H58.3906L32.3164 56.707H31.877C32.0397 58.237 32.1862 60.0762 32.3164 62.2246C32.4466 64.373 32.5605 66.5703 32.6582 68.8164C32.7559 71.0299 32.8047 73.0319 32.8047 74.8223V107H15.7148V35.6133H40.9102L66.8867 85.2227H67.1797C67.082 83.6602 66.9844 81.8535 66.8867 79.8027C66.7891 77.7194 66.6914 75.6198 66.5938 73.5039C66.5286 71.388 66.4961 69.5163 66.4961 67.8887V35.6133H83.6836V107ZM165.91 71.209C165.91 76.7103 165.243 81.7233 163.908 86.248C162.606 90.7402 160.555 94.6139 157.756 97.8691C154.956 101.124 151.359 103.631 146.965 105.389C142.57 107.114 137.313 107.977 131.193 107.977C125.204 107.977 120.012 107.114 115.617 105.389C111.255 103.631 107.658 101.141 104.826 97.918C101.994 94.6628 99.8945 90.7728 98.5273 86.248C97.1602 81.7233 96.4766 76.6777 96.4766 71.1113C96.4766 63.6895 97.6973 57.2441 100.139 51.7754C102.613 46.2741 106.421 42.026 111.564 39.0312C116.708 36.0039 123.283 34.4902 131.291 34.4902C139.429 34.4902 146.037 36.0039 151.115 39.0312C156.226 42.0586 159.969 46.3229 162.346 51.8242C164.722 57.3255 165.91 63.7871 165.91 71.209ZM116.789 71.209C116.789 75.5059 117.277 79.2005 118.254 82.293C119.23 85.3854 120.777 87.7617 122.893 89.4219C125.008 91.082 127.775 91.9121 131.193 91.9121C134.742 91.9121 137.557 91.082 139.641 89.4219C141.757 87.7617 143.27 85.3854 144.182 82.293C145.126 79.2005 145.598 75.5059 145.598 71.209C145.598 64.7637 144.523 59.6693 142.375 55.9258C140.227 52.1823 136.532 50.3105 131.291 50.3105C127.808 50.3105 124.992 51.1569 122.844 52.8496C120.728 54.5423 119.182 56.9512 118.205 60.0762C117.261 63.2012 116.789 66.9121 116.789 71.209Z" fill="white"/>
<path d="M198.709 109H179.715V37.6133H221.902V53.0918H198.709V66.7148H220.096V82.1934H198.709V109ZM251.688 53.6777V109H232.596V53.6777H251.688ZM242.215 31.4121C244.949 31.4121 247.326 31.9818 249.344 33.1211C251.395 34.2604 252.42 36.5228 252.42 39.9082C252.42 43.196 251.395 45.4258 249.344 46.5977C247.326 47.737 244.949 48.3066 242.215 48.3066C239.415 48.3066 237.023 47.737 235.037 46.5977C233.084 45.4258 232.107 43.196 232.107 39.9082C232.107 36.5228 233.084 34.2604 235.037 33.1211C237.023 31.9818 239.415 31.4121 242.215 31.4121ZM298.416 52.7012C299.458 52.7012 300.548 52.7826 301.688 52.9453C302.827 53.0755 303.673 53.1895 304.227 53.2871L302.518 71.3047C301.899 71.1419 301.102 71.0117 300.125 70.9141C299.148 70.7839 297.781 70.7188 296.023 70.7188C294.819 70.7188 293.533 70.8327 292.166 71.0605C290.799 71.2884 289.497 71.7767 288.26 72.5254C287.055 73.2415 286.062 74.3483 285.281 75.8457C284.5 77.3105 284.109 79.2962 284.109 81.8027V109H265.018V53.6777H279.227L282.205 62.5156H283.133C284.142 60.6927 285.428 59.0488 286.99 57.584C288.585 56.0866 290.359 54.8984 292.312 54.0195C294.298 53.1406 296.333 52.7012 298.416 52.7012ZM336.893 52.7012C342.264 52.7012 346.902 53.6452 350.809 55.5332C354.715 57.3887 357.726 60.1882 359.842 63.9316C361.958 67.6751 363.016 72.3626 363.016 77.9941V86.4902H328.885C329.048 89.3874 330.122 91.7637 332.107 93.6191C334.126 95.4746 337.088 96.4023 340.994 96.4023C344.445 96.4023 347.602 96.0605 350.467 95.377C353.364 94.6934 356.342 93.6354 359.402 92.2031V105.924C356.733 107.324 353.82 108.349 350.662 109C347.505 109.651 343.517 109.977 338.699 109.977C333.133 109.977 328.152 108.984 323.758 106.998C319.363 105.012 315.896 101.936 313.357 97.7695C310.851 93.6029 309.598 88.248 309.598 81.7051C309.598 75.0645 310.737 69.612 313.016 65.3477C315.294 61.0508 318.484 57.877 322.586 55.8262C326.688 53.7428 331.456 52.7012 336.893 52.7012ZM337.576 65.6895C335.33 65.6895 333.442 66.4056 331.912 67.8379C330.415 69.2376 329.536 71.4512 329.275 74.4785H345.682C345.649 72.8509 345.324 71.3698 344.705 70.0352C344.087 68.7005 343.175 67.6426 341.971 66.8613C340.799 66.0801 339.334 65.6895 337.576 65.6895ZM371.414 100.895C371.414 97.444 372.423 95.0189 374.441 93.6191C376.492 92.2194 378.95 91.5195 381.814 91.5195C384.516 91.5195 386.86 92.2194 388.846 93.6191C390.831 95.0189 391.824 97.444 391.824 100.895C391.824 104.182 390.831 106.559 388.846 108.023C386.86 109.488 384.516 110.221 381.814 110.221C378.95 110.221 376.492 109.488 374.441 108.023C372.423 106.559 371.414 104.182 371.414 100.895ZM429.715 52.7012C436.714 52.7012 442.182 54.4427 446.121 57.9258C450.06 61.3763 452.029 66.3079 452.029 72.7207V109H438.797L435.135 101.676H434.744C433.182 103.629 431.57 105.224 429.91 106.461C428.283 107.665 426.411 108.544 424.295 109.098C422.179 109.684 419.591 109.977 416.531 109.977C413.341 109.977 410.477 109.326 407.938 108.023C405.398 106.721 403.396 104.752 401.932 102.115C400.467 99.4785 399.734 96.1419 399.734 92.1055C399.734 86.181 401.785 81.7865 405.887 78.9219C409.988 76.0573 415.929 74.446 423.709 74.0879L432.938 73.7949V73.0137C432.938 70.5397 432.319 68.7819 431.082 67.7402C429.878 66.6986 428.25 66.1777 426.199 66.1777C424.018 66.1777 421.577 66.5684 418.875 67.3496C416.206 68.0983 413.52 69.0749 410.818 70.2793L405.301 57.6816C408.491 56.054 412.104 54.8171 416.141 53.9707C420.177 53.1243 424.702 52.7012 429.715 52.7012ZM433.035 84.293L428.641 84.4883C425.125 84.6185 422.651 85.237 421.219 86.3438C419.819 87.418 419.119 88.9642 419.119 90.9824C419.119 92.8704 419.624 94.2702 420.633 95.1816C421.642 96.0605 422.977 96.5 424.637 96.5C426.948 96.5 428.917 95.7676 430.545 94.3027C432.205 92.8379 433.035 90.9336 433.035 88.5898V84.293ZM484.207 53.6777V109H465.115V53.6777H484.207ZM474.734 31.4121C477.469 31.4121 479.845 31.9818 481.863 33.1211C483.914 34.2604 484.939 36.5228 484.939 39.9082C484.939 43.196 483.914 45.4258 481.863 46.5977C479.845 47.737 477.469 48.3066 474.734 48.3066C471.935 48.3066 469.542 47.737 467.557 46.5977C465.604 45.4258 464.627 43.196 464.627 39.9082C464.627 36.5228 465.604 34.2604 467.557 33.1211C469.542 31.9818 471.935 31.4121 474.734 31.4121Z" fill="white"/>
</svg>
