<svg width="128" height="26" viewBox="0 0 128 26" fill="none" xmlns="http://www.w3.org/2000/svg">
<path d="M17.8232 22.2942V9.07329H19.7618L19.8199 11.2832L19.5873 11.1669C19.8458 10.4044 20.2723 9.82933 20.8667 9.44162C21.4612 9.04099 22.1462 8.84067 22.9216 8.84067C23.9297 8.84067 24.7567 9.09268 25.403 9.5967C26.0621 10.0878 26.5467 10.7404 26.8569 11.5546C27.1799 12.3688 27.3415 13.2606 27.3415 14.2298C27.3415 15.1991 27.1799 16.0909 26.8569 16.905C26.5467 17.7192 26.0621 18.3783 25.403 18.8824C24.7567 19.3735 23.9297 19.619 22.9216 19.619C22.4047 19.619 21.9201 19.5286 21.4677 19.3476C21.0153 19.1666 20.6276 18.9146 20.3046 18.5916C19.9944 18.2555 19.7746 17.8614 19.6455 17.4091L19.8781 17.1764V22.2942H17.8232ZM22.5533 17.8355C23.3804 17.8355 24.0266 17.5189 24.4918 16.8857C24.97 16.2524 25.2091 15.3671 25.2091 14.2298C25.2091 13.0926 24.97 12.2073 24.4918 11.574C24.0266 10.9408 23.3804 10.6241 22.5533 10.6241C22.0105 10.6241 21.5387 10.7598 21.1381 11.0312C20.7376 11.2897 20.4274 11.6903 20.2076 12.2331C19.9879 12.7759 19.8781 13.4415 19.8781 14.2298C19.8781 15.0182 19.9815 15.6838 20.1883 16.2266C20.408 16.7693 20.7182 17.1764 21.1188 17.4478C21.5324 17.7064 22.0105 17.8355 22.5533 17.8355ZM32.0451 19.619C31.0758 19.619 30.2551 19.4704 29.5831 19.1731C28.924 18.8759 28.4135 18.4688 28.0517 17.9519C27.6898 17.4219 27.483 16.8146 27.4313 16.1296L29.5443 16.0327C29.6478 16.6014 29.8933 17.0536 30.281 17.3897C30.6687 17.7257 31.2568 17.8937 32.0451 17.8937C32.6913 17.8937 33.2017 17.7903 33.5765 17.5835C33.9514 17.3768 34.1387 17.0473 34.1387 16.5949C34.1387 16.3494 34.074 16.1425 33.9449 15.9745C33.8285 15.7936 33.5959 15.645 33.247 15.5287C32.898 15.3995 32.3811 15.2767 31.6961 15.1603C30.6752 14.9665 29.8739 14.7403 29.2923 14.4819C28.7108 14.2234 28.2972 13.8938 28.0517 13.4932C27.8062 13.0926 27.6833 12.6079 27.6833 12.0393C27.6833 11.0959 28.0323 10.3269 28.7302 9.7324C29.4409 9.13791 30.462 8.84067 31.7931 8.84067C32.6848 8.84067 33.4343 8.99575 34.0418 9.30592C34.6492 9.60317 35.1209 10.0103 35.4569 10.5272C35.8059 11.0312 36.0256 11.5999 36.116 12.2331L34.003 12.3494C33.9383 11.9876 33.8092 11.6774 33.6153 11.4189C33.4343 11.1475 33.1888 10.9408 32.8787 10.7986C32.5685 10.6435 32.2002 10.566 31.7737 10.566C31.1146 10.566 30.6234 10.6952 30.3004 10.9537C29.9773 11.2122 29.8157 11.5482 29.8157 11.9617C29.8157 12.2719 29.8868 12.5239 30.029 12.7178C30.1841 12.9116 30.4296 13.0732 30.7656 13.2024C31.1017 13.3187 31.5476 13.4221 32.1032 13.5126C33.1759 13.6935 34.0159 13.9197 34.6234 14.1911C35.2308 14.4495 35.6573 14.7726 35.9028 15.1603C36.1483 15.5481 36.2711 16.0198 36.2711 16.5755C36.2711 17.2217 36.0901 17.7709 35.7283 18.2233C35.3665 18.6756 34.8688 19.0246 34.2356 19.2701C33.6024 19.5027 32.8721 19.619 32.0451 19.619ZM42.863 19.6966C41.6223 19.6966 40.5302 19.4123 39.5868 18.8436C38.6434 18.262 37.9068 17.435 37.3769 16.3622C36.8469 15.2895 36.582 14.0101 36.582 12.5239C36.582 11.0506 36.8406 9.77764 37.3575 8.70497C37.8874 7.61938 38.624 6.7858 39.5674 6.20423C40.5108 5.60975 41.6158 5.3125 42.8823 5.3125C44.5883 5.3125 45.913 5.73898 46.8564 6.59194C47.7998 7.44491 48.4137 8.62742 48.698 10.1395L46.5074 10.2558C46.3264 9.31238 45.9387 8.57573 45.3443 8.04586C44.7499 7.50306 43.9292 7.23167 42.8823 7.23167C42.0423 7.23167 41.3121 7.44491 40.6918 7.87139C40.0843 8.29787 39.6062 8.90529 39.2572 9.69363C38.9212 10.482 38.7532 11.4254 38.7532 12.5239C38.7532 13.6224 38.9212 14.5659 39.2572 15.3542C39.6062 16.1425 40.0908 16.7434 40.7112 17.1571C41.3315 17.5707 42.0488 17.7774 42.863 17.7774C43.9744 17.7774 44.8338 17.4866 45.4412 16.905C46.0616 16.3106 46.4493 15.4964 46.6044 14.4625L48.7949 14.5788C48.627 15.6256 48.2909 16.5302 47.7869 17.2928C47.2829 18.0553 46.6172 18.6497 45.7902 19.0762C44.9631 19.4898 43.9873 19.6966 42.863 19.6966ZM53.7397 19.619C52.7576 19.619 51.8981 19.3993 51.1615 18.9599C50.4248 18.5206 49.8561 17.8937 49.4555 17.0795C49.055 16.2653 48.8546 15.3154 48.8546 14.2298C48.8546 13.1313 49.055 12.1814 49.4555 11.3802C49.8561 10.5789 50.4248 9.95856 51.1615 9.51916C51.8981 9.06682 52.7576 8.84067 53.7397 8.84067C54.7219 8.84067 55.5814 9.06682 56.318 9.51916C57.0547 9.95856 57.6234 10.5789 58.0239 11.3802C58.4245 12.1814 58.6249 13.1313 58.6249 14.2298C58.6249 15.3154 58.4245 16.2653 58.0239 17.0795C57.6234 17.8937 57.0547 18.5206 56.318 18.9599C55.5814 19.3993 54.7219 19.619 53.7397 19.619ZM53.7397 17.8355C54.6186 17.8355 55.2971 17.5189 55.7752 16.8857C56.2534 16.2394 56.4925 15.3542 56.4925 14.2298C56.4925 13.1055 56.2534 12.2267 55.7752 11.5934C55.2971 10.9472 54.6186 10.6241 53.7397 10.6241C52.8739 10.6241 52.1954 10.9472 51.7043 11.5934C51.2261 12.2267 50.987 13.1055 50.987 14.2298C50.987 15.3542 51.2261 16.2394 51.7043 16.8857C52.1954 17.5189 52.8739 17.8355 53.7397 17.8355ZM59.3446 19.3864V9.07329H61.225L61.2831 11.6322L61.0505 11.5546C61.1668 10.986 61.3672 10.5014 61.6515 10.1007C61.9488 9.7001 62.3106 9.38993 62.7371 9.17022C63.1635 8.95051 63.6288 8.84067 64.1328 8.84067C65.0117 8.84067 65.7289 9.09268 66.2846 9.5967C66.8403 10.0878 67.1892 10.7663 67.3314 11.6322H67.0019C67.1182 11.0248 67.312 10.5207 67.5834 10.1201C67.8677 9.70655 68.2297 9.38993 68.669 9.17022C69.1084 8.95051 69.606 8.84067 70.1617 8.84067C70.8855 8.84067 71.4993 8.99575 72.0033 9.30592C72.5202 9.60317 72.9079 10.0426 73.1665 10.6241C73.4379 11.2057 73.5736 11.9165 73.5736 12.7565V19.3864H71.5187V13.2606C71.5187 12.3688 71.3571 11.6968 71.0341 11.2445C70.711 10.7921 70.2199 10.566 69.5608 10.566C69.1343 10.566 68.7594 10.6758 68.4364 10.8955C68.1134 11.1152 67.8613 11.4319 67.6804 11.8454C67.5124 12.259 67.4283 12.7565 67.4283 13.3381V19.3864H65.4704V13.3381C65.4704 12.4593 65.3218 11.7808 65.0245 11.3026C64.7403 10.8115 64.2491 10.566 63.5512 10.566C63.1119 10.566 62.7305 10.6758 62.4075 10.8955C62.0973 11.1152 61.8518 11.4383 61.6708 11.8648C61.4899 12.2784 61.3995 12.7695 61.3995 13.3381V19.3864H59.3446ZM74.7795 22.2942V9.07329H76.7181L76.7763 11.2832L76.5436 11.1669C76.8022 10.4044 77.2286 9.82933 77.8231 9.44162C78.4175 9.04099 79.1025 8.84067 79.8779 8.84067C80.886 8.84067 81.7131 9.09268 82.3593 9.5967C83.0184 10.0878 83.503 10.7404 83.8132 11.5546C84.1362 12.3688 84.2978 13.2606 84.2978 14.2298C84.2978 15.1991 84.1362 16.0909 83.8132 16.905C83.503 17.7192 83.0184 18.3783 82.3593 18.8824C81.7131 19.3735 80.886 19.619 79.8779 19.619C79.361 19.619 78.8764 19.5286 78.424 19.3476C77.9717 19.1666 77.5839 18.9146 77.2609 18.5916C76.9507 18.2555 76.731 17.8614 76.6018 17.4091L76.8344 17.1764V22.2942H74.7795ZM79.5096 17.8355C80.3367 17.8355 80.9829 17.5189 81.4482 16.8857C81.9263 16.2524 82.1654 15.3671 82.1654 14.2298C82.1654 13.0926 81.9263 12.2073 81.4482 11.574C80.9829 10.9408 80.3367 10.6241 79.5096 10.6241C78.9668 10.6241 78.4951 10.7598 78.0945 11.0312C77.6939 11.2897 77.3837 11.6903 77.164 12.2331C76.9442 12.7759 76.8344 13.4415 76.8344 14.2298C76.8344 15.0182 76.9379 15.6838 77.1446 16.2266C77.3643 16.7693 77.6745 17.1764 78.0751 17.4478C78.4887 17.7064 78.9668 17.8355 79.5096 17.8355ZM88.1241 19.619C87.0513 19.619 86.192 19.3735 85.5458 18.8824C84.9126 18.3912 84.5959 17.6998 84.5959 16.8081C84.5959 15.9164 84.8608 15.225 85.3907 14.7339C85.9335 14.2298 86.7671 13.868 87.8914 13.6483L91.439 12.9698C91.439 12.1685 91.2516 11.574 90.8768 11.1863C90.502 10.7857 89.9463 10.5854 89.2096 10.5854C88.5505 10.5854 88.0336 10.734 87.6588 11.0312C87.284 11.3155 87.0256 11.742 86.8834 12.3107L84.7704 12.175C84.9642 11.1411 85.4423 10.3269 86.2049 9.7324C86.9803 9.13791 87.9819 8.84067 89.2096 8.84067C90.6054 8.84067 91.6651 9.21546 92.3889 9.96503C93.1255 10.7017 93.4938 11.742 93.4938 13.0861V17.0989C93.4938 17.3444 93.5326 17.5189 93.6102 17.6223C93.7006 17.7127 93.8428 17.758 94.0367 17.758H94.405V19.3864C94.3403 19.3993 94.237 19.4123 94.0948 19.4252C93.9526 19.438 93.804 19.4445 93.6489 19.4445C93.2096 19.4445 92.8282 19.3735 92.5052 19.2313C92.195 19.0891 91.9624 18.8565 91.8073 18.5334C91.6522 18.1974 91.5747 17.7515 91.5747 17.1958L91.7879 17.2928C91.6845 17.7451 91.4584 18.1457 91.1094 18.4947C90.7734 18.8436 90.3405 19.1215 89.8106 19.3282C89.2937 19.5221 88.7315 19.619 88.1241 19.619ZM88.4536 17.9906C89.074 17.9906 89.6039 17.8743 90.0432 17.6417C90.4826 17.3962 90.8252 17.0601 91.0707 16.6336C91.3162 16.2072 91.439 15.7225 91.439 15.1797V14.5206L88.4148 15.1022C87.7945 15.2185 87.3551 15.4058 87.0966 15.6644C86.8511 15.9099 86.7283 16.2265 86.7283 16.6143C86.7283 17.0536 86.8769 17.3962 87.1742 17.6417C87.4843 17.8743 87.9108 17.9906 88.4536 17.9906ZM94.783 19.3864V9.07329H96.6634L96.7409 11.826L96.4889 11.6903C96.6052 11.0183 96.825 10.4755 97.148 10.062C97.4711 9.64839 97.8653 9.34469 98.3305 9.15083C98.7958 8.94406 99.2998 8.84067 99.8426 8.84067C100.618 8.84067 101.258 9.01514 101.762 9.36407C102.279 9.7001 102.666 10.1653 102.925 10.7598C103.196 11.3414 103.332 12.007 103.332 12.7565V19.3864H101.277V13.3769C101.277 12.7695 101.212 12.259 101.083 11.8454C100.954 11.4319 100.741 11.1152 100.443 10.8955C100.146 10.6758 99.7586 10.566 99.2804 10.566C98.5567 10.566 97.9687 10.8051 97.5164 11.2832C97.064 11.7614 96.8379 12.4593 96.8379 13.3769V19.3864H94.783ZM104.69 19.3864V9.07329H106.745V19.3864H104.69ZM104.651 7.58061V5.52574H106.784V7.58061H104.651ZM112.349 19.619C111.367 19.619 110.507 19.3993 109.771 18.9599C109.034 18.5206 108.465 17.8937 108.065 17.0795C107.664 16.2653 107.464 15.3154 107.464 14.2298C107.464 13.1313 107.664 12.1814 108.065 11.3802C108.465 10.5789 109.034 9.95856 109.771 9.51916C110.507 9.06682 111.367 8.84067 112.349 8.84067C113.331 8.84067 114.191 9.06682 114.927 9.51916C115.664 9.95856 116.233 10.5789 116.633 11.3802C117.034 12.1814 117.234 13.1313 117.234 14.2298C117.234 15.3154 117.034 16.2653 116.633 17.0795C116.233 17.8937 115.664 18.5206 114.927 18.9599C114.191 19.3993 113.331 19.619 112.349 19.619ZM112.349 17.8355C113.228 17.8355 113.906 17.5189 114.385 16.8857C114.863 16.2394 115.102 15.3542 115.102 14.2298C115.102 13.1055 114.863 12.2267 114.385 11.5934C113.906 10.9472 113.228 10.6241 112.349 10.6241C111.483 10.6241 110.805 10.9472 110.314 11.5934C109.835 12.2267 109.596 13.1055 109.596 14.2298C109.596 15.3542 109.835 16.2394 110.314 16.8857C110.805 17.5189 111.483 17.8355 112.349 17.8355ZM117.954 19.3864V9.07329H119.834L119.912 11.826L119.66 11.6903C119.776 11.0183 119.996 10.4755 120.319 10.062C120.642 9.64839 121.036 9.34469 121.501 9.15083C121.967 8.94406 122.471 8.84067 123.014 8.84067C123.789 8.84067 124.429 9.01514 124.933 9.36407C125.45 9.7001 125.837 10.1653 126.096 10.7598C126.367 11.3414 126.503 12.007 126.503 12.7565V19.3864H124.448V13.3769C124.448 12.7695 124.383 12.259 124.254 11.8454C124.125 11.4319 123.912 11.1152 123.614 10.8955C123.317 10.6758 122.929 10.566 122.451 10.566C121.728 10.566 121.14 10.8051 120.687 11.2832C120.235 11.7614 120.009 12.4593 120.009 13.3769V19.3864H117.954Z" fill="#171717"/>
<path fill-rule="evenodd" clip-rule="evenodd" d="M14.1884 14.4123C14.4101 13.6183 14.5209 12.7395 14.5209 11.7757C14.5209 10.8912 14.4275 10.0789 14.2408 9.33893H12.2446C12.1602 8.87106 12.0033 8.45931 11.7738 8.10372C11.5443 7.74814 11.2633 7.44636 10.9308 7.19837C10.5982 6.95041 10.2258 6.76325 9.81372 6.63692C9.54876 6.55478 9.27291 6.49935 8.98615 6.47062C9.44097 6.57038 9.86436 6.74562 10.2563 6.99634C10.912 7.40807 11.4273 8.01631 11.802 8.82106C12.1813 9.62114 12.371 10.606 12.371 11.7757C12.371 12.9454 12.1813 13.9327 11.802 14.7374C11.4273 15.5374 10.912 16.1458 10.2563 16.5621C9.60531 16.9739 8.86761 17.1798 8.04326 17.1798C7.87671 17.1798 7.71374 17.1714 7.55436 17.1548C7.85854 17.2219 8.17607 17.2555 8.50695 17.2555C8.96127 17.2555 9.39217 17.1946 9.79966 17.073C10.2118 16.9467 10.5842 16.7619 10.9167 16.5185C11.2493 16.2753 11.5303 15.9782 11.7598 15.6272C11.994 15.2716 12.1556 14.8646 12.2446 14.4061L14.1884 14.4123ZM7.08078 19.0968C6.2171 18.982 5.42553 18.7079 4.70607 18.2746C3.73186 17.6804 2.96371 16.8311 2.40166 15.7271C1.8396 14.6228 1.55859 13.3057 1.55859 11.7757C1.55859 10.2411 1.8396 8.924 2.40166 7.82448C2.96371 6.72028 3.73186 5.87342 4.70607 5.28389C5.68498 4.68968 6.79738 4.39258 8.04326 4.39258C8.52358 4.39258 8.98391 4.43707 9.42425 4.52605C9.12282 4.48755 8.81236 4.46829 8.4929 4.46829C7.25169 4.46829 6.14398 4.7654 5.16976 5.35961C4.19554 5.94914 3.4274 6.796 2.86534 7.90021C2.3033 8.99971 2.02227 10.3168 2.02227 11.8514C2.02227 13.3814 2.30095 14.6985 2.85831 15.8028C3.42037 16.9068 4.18851 17.7562 5.16274 18.3503C5.75233 18.7071 6.39167 18.956 7.08078 19.0968Z" fill="#171717"/>
<path fill-rule="evenodd" clip-rule="evenodd" d="M13.5308 9.33744H14.4362C14.3144 8.56543 14.0802 7.87998 13.7336 7.28111C13.387 6.67753 12.9491 6.16754 12.4198 5.75113C11.8906 5.33004 11.2934 5.01188 10.6283 4.79665C10.1291 4.63042 9.60039 4.52703 9.04228 4.48646C9.2214 4.47335 9.40344 4.4668 9.58844 4.4668C10.8297 4.4668 11.9374 4.7639 12.9116 5.35811C13.8905 5.94764 14.661 6.7945 15.2231 7.8987C15.7851 8.99822 16.0662 10.3153 16.0662 11.85C16.0662 13.3846 15.7851 14.704 15.2231 15.8082C14.661 16.9078 13.8905 17.7547 12.9116 18.3488C11.9374 18.9384 10.8297 19.2331 9.58844 19.2331C9.40341 19.2331 9.22133 19.2266 9.04218 19.2136C9.62517 19.1715 10.1726 19.0609 10.6845 18.8822C11.3543 18.6482 11.9491 18.3184 12.469 17.8926C12.9936 17.4622 13.4222 16.9521 13.7547 16.3627C14.0919 15.7684 14.3191 15.1181 14.4362 14.4116L13.5157 14.4086C13.7828 13.6842 13.9163 12.8313 13.9163 11.85C13.9163 10.8873 13.7878 10.0498 13.5308 9.33744ZM9.05273 6.47633C8.87713 6.45607 8.6974 6.44594 8.51354 6.44594C7.68451 6.44594 6.94213 6.65413 6.2864 7.07056C5.63537 7.48697 5.12015 8.09755 4.74076 8.90231C4.36606 9.70707 4.17871 10.6896 4.17871 11.85C4.17871 13.0197 4.36606 14.0069 4.74076 14.8116C5.12015 15.6164 5.6377 16.2246 6.29343 16.6364C6.94916 17.0482 7.68686 17.254 8.50652 17.254C8.69172 17.254 8.87304 17.2438 9.05046 17.2237C8.43583 17.1527 7.87512 16.9568 7.36834 16.6364C6.71729 16.22 6.20208 15.6117 5.8227 14.8116C5.448 14.0069 5.26064 13.0197 5.26064 11.85C5.26064 10.6803 5.448 9.69536 5.8227 8.89528C6.20208 8.09053 6.71729 7.48229 7.36834 7.07056C7.87574 6.746 8.43721 6.54794 9.05273 6.47633Z" fill="#171717"/>
<path d="M12.975 11.85C12.975 13.3846 12.694 14.704 12.1319 15.8082C11.5699 16.9078 10.7994 17.7547 9.82051 18.3488C8.84628 18.9384 7.73858 19.2331 6.49738 19.2331C5.25149 19.2331 4.1391 18.9384 3.16019 18.3488C2.18596 17.7547 1.41782 16.9053 0.855775 15.8013C0.293722 14.697 0.0126953 13.3799 0.0126953 11.85C0.0126953 10.3153 0.293722 8.99822 0.855775 7.8987C1.41782 6.7945 2.18596 5.94764 3.16019 5.35811C4.1391 4.7639 5.25149 4.4668 6.49738 4.4668C7.73858 4.4668 8.84628 4.7639 9.82051 5.35811C10.7994 5.94764 11.5699 6.7945 12.1319 7.8987C12.694 8.99822 12.975 10.3153 12.975 11.85ZM10.8252 11.85C10.8252 10.6803 10.6355 9.69536 10.2561 8.89528C9.88139 8.09053 9.36619 7.48229 8.71046 7.07056C8.05941 6.65413 7.32172 6.44594 6.49738 6.44594C5.66834 6.44594 4.92832 6.65413 4.27727 7.07056C3.62623 7.48229 3.11101 8.09053 2.73162 8.89528C2.35692 9.69536 2.16958 10.6803 2.16958 11.85C2.16958 13.0197 2.35692 14.0069 2.73162 14.8116C3.11101 15.6117 3.62623 16.22 4.27727 16.6364C4.92832 17.0482 5.66834 17.254 6.49738 17.254C7.32172 17.254 8.05941 17.0482 8.71046 16.6364C9.36619 16.22 9.88139 15.6117 10.2561 14.8116C10.6355 14.0069 10.8252 13.0197 10.8252 11.85Z" fill="#171717"/>
</svg>
