<svg xmlns="http://www.w3.org/2000/svg" version="1.1" xmlns:xlink="http://www.w3.org/1999/xlink" xmlns:svgjs="http://svgjs.dev/svgjs" width="32" height="32"><svg width="32" height="32" viewBox="0 0 32 32" fill="none" xmlns="http://www.w3.org/2000/svg">
<rect width="32" height="32" rx="4" fill="#0C111D"></rect>
<path d="M25.7875 15.7212C25.6653 12.272 22.7339 9.59057 19.2896 9.59057H17.7177C17.5301 9.59057 17.378 9.43816 17.378 9.25014V5.09803C17.378 5.01898 17.2899 4.97269 17.2252 5.01756L15.0379 6.54308C14.7771 6.72469 14.6215 7.0231 14.6215 7.34146V9.25014C14.6215 9.43816 14.4694 9.59057 14.2818 9.59057H12.7092C9.26558 9.59057 6.33428 12.272 6.21205 15.7212C6.2085 15.8166 6.2085 15.9085 6.2085 16.0004C6.2085 16.0922 6.2085 16.1841 6.21205 16.2795C6.33428 19.728 9.26558 22.4101 12.7092 22.4101H14.2818C14.4694 22.4101 14.6215 22.5625 14.6215 22.7506V26.9027C14.6215 26.981 14.7096 27.0273 14.7743 26.9824L16.9623 25.4541C17.2224 25.2717 17.378 24.974 17.378 24.6557V22.7506C17.378 22.5625 17.5301 22.4101 17.7177 22.4101H19.2896C22.7339 22.4101 25.6653 19.728 25.7875 16.2795C25.791 16.1841 25.791 16.0922 25.791 16.0004C25.791 15.9085 25.791 15.8166 25.7875 15.7212ZM14.6215 21.272C14.6215 21.4601 14.4694 21.6125 14.2818 21.6125H13.25C12.0263 21.6125 9.32314 21.4828 9.32314 16.0004C9.32314 10.5179 12.0263 10.3882 13.25 10.3882H14.2818C14.4694 10.3882 14.6215 10.5406 14.6215 10.7287V21.272ZM18.7495 21.6125H17.7177C17.5301 21.6125 17.378 21.4601 17.378 21.272V10.7287C17.378 10.5406 17.5301 10.3882 17.7177 10.3882H18.7495C19.9732 10.3882 22.6764 10.5171 22.6764 16.0004C22.6764 21.4836 19.9732 21.6125 18.7495 21.6125Z" fill="white"></path>
</svg><style>@media (prefers-color-scheme: light) { :root { filter: none; } }
@media (prefers-color-scheme: dark) { :root { filter: none; } }
</style></svg>
