<svg width="132" height="48" viewBox="0 0 132 48" fill="none" xmlns="http://www.w3.org/2000/svg">
<path d="M78.3828 22.3287C78.011 22.3287 77.6912 22.2395 77.4234 22.061C77.1557 21.8676 76.94 21.5701 76.7764 21.1685L73.5412 12.9133C73.4074 12.5563 73.3627 12.244 73.4074 11.9762C73.4669 11.6936 73.6082 11.4705 73.8313 11.3069C74.0544 11.1433 74.3519 11.0615 74.7237 11.0615C75.051 11.0615 75.3187 11.1433 75.5269 11.3069C75.7352 11.4556 75.9137 11.7457 76.0624 12.177L78.7621 19.6067H78.2489L81.0379 11.9985C81.1569 11.6713 81.313 11.4333 81.5064 11.2846C81.7146 11.1358 81.9824 11.0615 82.3096 11.0615C82.6369 11.0615 82.9046 11.1433 83.1128 11.3069C83.3211 11.4556 83.4773 11.6862 83.5814 11.9985L86.3257 19.6067H85.8571L88.5791 12.1101C88.7279 11.7085 88.9138 11.4333 89.1369 11.2846C89.3749 11.1358 89.6352 11.0615 89.9178 11.0615C90.2748 11.0615 90.55 11.1507 90.7433 11.3292C90.9367 11.5077 91.0483 11.7382 91.078 12.0208C91.1078 12.2886 91.0557 12.5861 90.9218 12.9133L87.709 21.1685C87.5602 21.5553 87.3446 21.8453 87.062 22.0387C86.7942 22.2321 86.4744 22.3287 86.1026 22.3287C85.7307 22.3287 85.4035 22.2321 85.1209 22.0387C84.8531 21.8453 84.6449 21.5553 84.4961 21.1685L81.5733 13.4265H82.8451L79.9892 21.1462C79.8405 21.5478 79.6322 21.8453 79.3645 22.0387C79.0968 22.2321 78.7695 22.3287 78.3828 22.3287Z" fill="#1989EC"/>
<path d="M95.0528 22.3287C94.6066 22.3287 94.2645 22.2097 94.0265 21.9718C93.7885 21.7189 93.6695 21.3619 93.6695 20.9008V7.64781C93.6695 7.18671 93.7885 6.83716 94.0265 6.59917C94.2645 6.36118 94.6066 6.24219 95.0528 6.24219C95.499 6.24219 95.8411 6.36118 96.0791 6.59917C96.332 6.83716 96.4584 7.18671 96.4584 7.64781V13.4265H96.1461C96.4733 12.6381 96.979 12.0432 97.6632 11.6416C98.3623 11.2251 99.1507 11.0168 100.028 11.0168C100.906 11.0168 101.627 11.1805 102.192 11.5077C102.758 11.8349 103.182 12.3332 103.464 13.0026C103.747 13.657 103.888 14.49 103.888 15.5014V20.9008C103.888 21.3619 103.769 21.7189 103.531 21.9718C103.293 22.2097 102.951 22.3287 102.505 22.3287C102.059 22.3287 101.709 22.2097 101.456 21.9718C101.218 21.7189 101.099 21.3619 101.099 20.9008V15.6353C101.099 14.7875 100.936 14.1702 100.608 13.7835C100.296 13.3967 99.8051 13.2034 99.1358 13.2034C98.3177 13.2034 97.6632 13.4637 97.1724 13.9843C96.6964 14.49 96.4584 15.1668 96.4584 16.0146V20.9008C96.4584 21.8528 95.9899 22.3287 95.0528 22.3287Z" fill="#1989EC"/>
<path d="M112.58 22.3734C111.345 22.3734 110.282 22.1428 109.39 21.6817C108.497 21.2206 107.805 20.5661 107.315 19.7183C106.839 18.8705 106.601 17.8664 106.601 16.7063C106.601 15.5758 106.831 14.5867 107.292 13.7388C107.768 12.891 108.415 12.2291 109.233 11.7531C110.066 11.2623 111.011 11.0168 112.067 11.0168C112.84 11.0168 113.532 11.1433 114.142 11.3961C114.767 11.649 115.295 12.0134 115.726 12.4894C116.172 12.9654 116.507 13.5455 116.73 14.2297C116.968 14.899 117.087 15.6576 117.087 16.5054C117.087 16.7732 116.99 16.9814 116.797 17.1302C116.618 17.264 116.358 17.331 116.016 17.331H108.854V15.7245H115.124L114.767 16.0592C114.767 15.375 114.662 14.8023 114.454 14.3412C114.261 13.8801 113.971 13.5306 113.584 13.2926C113.212 13.0397 112.744 12.9133 112.178 12.9133C111.554 12.9133 111.018 13.062 110.572 13.3595C110.141 13.6421 109.806 14.0512 109.568 14.5867C109.345 15.1073 109.233 15.732 109.233 16.4608V16.617C109.233 17.8367 109.516 18.7515 110.081 19.3613C110.661 19.9563 111.509 20.2538 112.625 20.2538C113.011 20.2538 113.443 20.2091 113.919 20.1199C114.41 20.0158 114.871 19.8447 115.302 19.6067C115.614 19.4282 115.89 19.3539 116.128 19.3836C116.366 19.3985 116.551 19.4803 116.685 19.629C116.834 19.7778 116.923 19.9637 116.953 20.1868C116.983 20.3951 116.938 20.6108 116.819 20.8339C116.715 21.057 116.529 21.2503 116.261 21.414C115.741 21.7412 115.138 21.9866 114.454 22.1502C113.785 22.299 113.16 22.3734 112.58 22.3734Z" fill="#1989EC"/>
<path d="M121.161 22.3287C120.715 22.3287 120.373 22.2097 120.135 21.9718C119.897 21.7189 119.778 21.3619 119.778 20.9008V12.4671C119.778 12.006 119.897 11.6564 120.135 11.4184C120.373 11.1805 120.707 11.0615 121.139 11.0615C121.57 11.0615 121.905 11.1805 122.143 11.4184C122.381 11.6564 122.5 12.006 122.5 12.4671V13.9843L122.254 13.4265C122.582 12.6381 123.087 12.0432 123.772 11.6416C124.471 11.2251 125.259 11.0168 126.137 11.0168C127.014 11.0168 127.736 11.1805 128.301 11.5077C128.866 11.8349 129.29 12.3332 129.573 13.0026C129.855 13.657 129.996 14.49 129.996 15.5014V20.9008C129.996 21.3619 129.877 21.7189 129.639 21.9718C129.401 22.2097 129.059 22.3287 128.613 22.3287C128.167 22.3287 127.817 22.2097 127.564 21.9718C127.326 21.7189 127.207 21.3619 127.207 20.9008V15.6353C127.207 14.7875 127.044 14.1702 126.717 13.7835C126.404 13.3967 125.913 13.2034 125.244 13.2034C124.426 13.2034 123.772 13.4637 123.281 13.9843C122.805 14.49 122.567 15.1668 122.567 16.0146V20.9008C122.567 21.8528 122.098 22.3287 121.161 22.3287Z" fill="#1989EC"/>
<path d="M46.269 26.3531C46.3557 26.3676 46.4425 26.3748 46.5292 26.3748C46.6304 26.3748 46.7317 26.3748 46.8329 26.3748C48.0908 26.3748 49.2764 26.1073 50.3898 25.5723C51.5176 25.0229 52.5008 24.3289 53.3394 23.4902C54.1781 22.6516 54.8359 21.719 55.3131 20.6924C55.8047 19.6658 56.0505 18.6681 56.0505 17.6994C56.0505 17.0054 55.9204 16.3475 55.6601 15.7257C55.4143 15.104 55.0167 14.5618 54.4672 14.0991C53.9323 13.6364 53.2382 13.2677 52.3851 12.993C51.5465 12.7182 50.5416 12.5809 49.3704 12.5809C48.0547 12.5809 46.9196 12.7038 45.9653 12.9496C45.0255 13.1954 44.2085 13.5135 43.5145 13.9039C42.8349 14.2943 42.2566 14.7425 41.7794 15.2486C41.3167 15.7546 40.9119 16.2752 40.5649 16.8102C40.2323 17.3451 39.9287 17.8657 39.6539 18.3717C39.3792 18.8778 39.09 19.326 38.7864 19.7164C38.4972 20.1068 38.1719 20.4249 37.8104 20.6707C37.4489 20.9165 37.0007 21.0394 36.4657 21.0394C35.7428 21.0394 35.2006 20.8587 34.8391 20.4972C34.4776 20.1213 34.2969 19.6008 34.2969 18.9356C34.2969 18.3139 34.4632 17.6416 34.7957 16.9186C35.1427 16.1956 35.6271 15.4727 36.2488 14.7497C36.885 14.0268 37.6586 13.3328 38.5695 12.6676C39.4804 11.9881 40.4998 11.3952 41.6276 10.8892C42.7699 10.3687 44.0134 9.95657 45.358 9.65293C46.7027 9.33483 48.1269 9.17578 49.6307 9.17578C51.1055 9.17578 52.5153 9.36375 53.86 9.73968C55.2191 10.1156 56.4192 10.6795 57.4603 11.4314C58.5013 12.1688 59.3255 13.1014 59.9328 14.2292C60.5545 15.357 60.8654 16.6728 60.8654 18.1765C60.8654 19.1887 60.6774 20.1574 60.3015 21.0828C59.94 21.9937 59.4484 22.854 58.8266 23.6637C58.2049 24.459 57.4747 25.1964 56.6361 25.876C55.8119 26.5411 54.9299 27.1339 53.9901 27.6544C53.0503 28.175 52.0815 28.616 51.0838 28.9774C50.1006 29.3389 49.1463 29.5992 48.2209 29.7582C48.3511 30.4378 48.5607 31.2041 48.8499 32.0572C49.1535 32.8958 49.515 33.6983 49.9343 34.4646C50.3681 35.2165 50.8452 35.8599 51.3658 36.3949C51.8863 36.9299 52.4357 37.2191 53.0141 37.2625C53.1298 37.2769 53.2382 37.2842 53.3394 37.2842C53.4406 37.2842 53.5419 37.2842 53.6431 37.2842C54.6986 37.2842 55.6384 37.1107 56.4626 36.7636C57.2868 36.4166 57.9736 36.0335 58.523 35.6141C59.1737 35.137 59.7376 34.5803 60.2147 33.9441C60.6629 33.4381 61.1184 33.185 61.5811 33.185C61.8703 33.185 62.1161 33.2862 62.3185 33.4887C62.5209 33.6911 62.6221 33.9658 62.6221 34.3128C62.6221 34.6454 62.5137 35.0358 62.2968 35.484C62.0944 35.9178 61.7401 36.3732 61.2341 36.8504C59.7448 38.2529 58.2844 39.2795 56.853 39.9302C55.436 40.5664 54.0913 40.8845 52.8189 40.8845C51.7779 40.8845 50.8163 40.5881 49.9343 39.9952C49.0523 39.4024 48.2498 38.5999 47.5269 37.5878C46.8039 36.5757 46.1461 35.3973 45.5532 34.0526C44.9604 32.6934 44.4327 31.262 43.97 29.7582C43.7097 30.351 43.4422 31.0523 43.1675 31.862C42.8928 32.6573 42.5964 33.4814 42.2783 34.3345C41.9602 35.1876 41.6276 36.0335 41.2806 36.8721C40.9336 37.6962 40.5504 38.4409 40.1311 39.106C39.7118 39.7567 39.2636 40.2844 38.7864 40.6893C38.3093 41.0941 37.7887 41.2965 37.2248 41.2965C36.7621 41.2965 36.3862 41.2242 36.097 41.0797C35.8078 40.9351 35.5837 40.7543 35.4247 40.5374C35.2656 40.3206 35.15 40.082 35.0777 39.8217C35.0198 39.5615 34.9909 39.3157 34.9909 39.0843C34.9909 38.7518 35.0343 38.412 35.121 38.0649C35.2078 37.7179 35.3307 37.3926 35.4897 37.089L41.8879 25.3771C42.4373 24.3939 42.9868 23.4469 43.5362 22.5359C44.1001 21.6106 44.6423 20.7936 45.1628 20.0851C45.6978 19.3766 46.1967 18.8127 46.6594 18.3934C47.1365 17.9596 47.563 17.7428 47.939 17.7428C48.0402 17.7428 48.1631 17.7645 48.3077 17.8078C48.4523 17.8367 48.5824 17.9018 48.6981 18.003C48.8138 18.0898 48.915 18.2271 49.0017 18.4151C49.0885 18.5886 49.1319 18.8127 49.1319 19.0875C49.1319 19.3622 49.0523 19.7453 48.8933 20.2369C48.7342 20.7286 48.5246 21.2925 48.2643 21.9287C48.004 22.5649 47.7004 23.2661 47.3534 24.0324C47.0064 24.7843 46.6449 25.5579 46.269 26.3531Z" fill="#FFAC50"/>
<path d="M82.4449 35.2888C81.8087 36.0118 81.0641 36.7203 80.211 37.4143C79.3724 38.0939 78.5048 38.7011 77.6084 39.2361C76.7119 39.7711 75.8299 40.1977 74.9624 40.5158C74.0948 40.8483 73.314 41.0146 72.62 41.0146C71.926 41.0146 71.3621 40.8194 70.9283 40.429C70.4945 40.0386 70.2776 39.3735 70.2776 38.4337C70.2776 37.7685 70.3933 36.995 70.6247 36.113C70.2487 36.6769 69.7788 37.248 69.2149 37.8264C68.651 38.4047 68.0076 38.9325 67.2846 39.4096C66.5617 39.8868 65.752 40.27 64.8555 40.5591C63.9591 40.8628 62.9831 41.0146 61.9276 41.0146C61.4504 41.0146 60.9877 40.964 60.5395 40.8628C60.1057 40.7616 59.7226 40.5881 59.39 40.3422C59.0574 40.0964 58.7899 39.7711 58.5875 39.3663C58.3851 38.9469 58.2839 38.4264 58.2839 37.8047C58.2839 37.7902 58.3128 37.5733 58.3706 37.154C58.4285 36.7203 58.6092 36.0479 58.9128 35.137C59.2309 34.2116 59.7153 33.0187 60.366 31.5584C61.0166 30.098 61.9348 28.3268 63.1204 26.2447C63.4241 25.6952 63.7711 25.3048 64.1615 25.0735C64.5663 24.8277 65.0001 24.7048 65.4628 24.7048C65.6652 24.7048 65.8749 24.7337 66.0918 24.7915C66.3086 24.8349 66.5111 24.9144 66.699 25.0301C66.887 25.1313 67.0388 25.2687 67.1545 25.4422C67.2702 25.6013 67.328 25.7892 67.328 26.0061C67.328 26.1507 67.3063 26.2881 67.2629 26.4182C67.1906 26.664 67.0316 26.9893 66.7858 27.3942C66.5544 27.7846 66.2797 28.24 65.9616 28.7606C65.6435 29.2666 65.3037 29.8161 64.9423 30.4089C64.5952 31.0017 64.2699 31.6162 63.9663 32.2524C63.6626 32.8886 63.4024 33.5393 63.1855 34.2044C62.9686 34.855 62.8457 35.4912 62.8168 36.113C62.8168 36.3732 62.8891 36.6118 63.0337 36.8287C63.1783 37.0456 63.4168 37.154 63.7494 37.154C64.6892 37.154 65.5857 36.8938 66.4388 36.3732C67.2919 35.8527 68.0799 35.2093 68.8028 34.443C69.5258 33.6622 70.1764 32.8308 70.7548 31.9488C71.3476 31.0523 71.8392 30.2354 72.2296 29.498C72.5043 29.0064 72.7429 28.4786 72.9453 27.9147C73.1622 27.3508 73.3936 26.8303 73.6394 26.3531C73.8852 25.876 74.1671 25.4784 74.4852 25.1603C74.8033 24.8422 75.201 24.6831 75.6781 24.6831C76.1986 24.6831 76.6107 24.8494 76.9144 25.1819C77.218 25.5145 77.3698 25.9121 77.3698 26.3748C77.3698 26.6351 77.2686 26.9966 77.0662 27.4592C76.8782 27.9075 76.6324 28.428 76.3288 29.0208C76.0396 29.5992 75.7215 30.2209 75.3745 30.886C75.0274 31.5511 74.7021 32.2307 74.3985 32.9248C74.1093 33.6043 73.8635 34.2767 73.6611 34.9418C73.4731 35.5925 73.3791 36.1997 73.3791 36.7636C73.3791 37.2842 73.6972 37.5444 74.3334 37.5444C74.7816 37.5444 75.3383 37.4143 76.0034 37.154C76.6685 36.8938 77.3626 36.5323 78.0855 36.0696C78.8229 35.5925 79.5531 35.0358 80.2761 34.3996C81.0135 33.7634 81.6641 33.0766 82.228 32.3392L82.4449 35.2888Z" fill="#FFAC50"/>
<path d="M82.6179 27.3074C82.9071 26.6857 83.2686 26.223 83.7023 25.9194C84.1361 25.6157 84.5626 25.4639 84.9819 25.4639C85.329 25.4639 85.6398 25.594 85.9146 25.8543C86.1893 26.1001 86.3266 26.4688 86.3266 26.9604C86.3266 27.1484 86.3049 27.3508 86.2616 27.5677C86.2182 27.7846 86.1387 28.0159 86.023 28.2617C86.3411 27.8569 86.7966 27.4448 87.3894 27.0255C87.9822 26.5917 88.6329 26.2085 89.3413 25.876C90.0643 25.529 90.8017 25.247 91.5536 25.0301C92.3199 24.8132 93.0429 24.7048 93.7224 24.7048C94.4888 24.7048 95.125 24.8928 95.631 25.2687C96.1516 25.6302 96.4118 26.2519 96.4118 27.1339C96.4118 27.6544 96.3323 28.1967 96.1732 28.7606C96.0142 29.3245 95.8045 29.8884 95.5443 30.4523C95.2985 31.0162 95.0165 31.5728 94.6984 32.1223C94.3948 32.6573 94.0911 33.1633 93.7875 33.6405C93.4839 34.1176 93.2019 34.5586 92.9417 34.9635C92.6958 35.3539 92.5006 35.6792 92.3561 35.9395C92.1681 36.1708 92.0741 36.4383 92.0741 36.7419C92.0741 36.8576 92.1103 36.9588 92.1826 37.0456C92.2548 37.1323 92.3705 37.1757 92.5296 37.1757C92.6308 37.1757 92.7465 37.1685 92.8766 37.154C93.0067 37.1251 93.1658 37.0456 93.3537 36.9155C94.1345 36.6263 94.9298 36.2648 95.7395 35.831C96.5636 35.3973 97.3517 34.9418 98.1035 34.4646C98.8554 33.973 99.5422 33.4887 100.164 33.0115C100.8 32.5199 101.328 32.0789 101.747 31.6885C101.863 31.5873 101.979 31.515 102.094 31.4716C102.21 31.4282 102.318 31.4066 102.42 31.4066C102.665 31.4066 102.853 31.5005 102.983 31.6885C103.128 31.8765 103.2 32.1151 103.2 32.4042C103.2 32.8525 103.056 33.3513 102.767 33.9007C102.492 34.4502 102.051 34.9635 101.444 35.4406C100.619 36.0335 99.8603 36.5757 99.1663 37.0673C98.4867 37.5589 97.7854 38.0216 97.0625 38.4553C96.354 38.8747 95.5877 39.2723 94.7635 39.6482C93.9538 40.0097 92.9995 40.3495 91.9006 40.6676C91.5247 40.7832 91.1776 40.87 90.8595 40.9278C90.5559 40.9857 90.274 41.0146 90.0137 41.0146C89.2474 41.0146 88.6835 40.8049 88.322 40.3856C87.975 39.9519 87.8015 39.3518 87.8015 38.5855C87.8015 38.4843 87.8015 38.3903 87.8015 38.3035C87.8159 38.2023 87.8304 38.0939 87.8448 37.9782C87.8738 37.53 87.9894 37.0384 88.1919 36.5034C88.4087 35.9684 88.6618 35.4189 88.951 34.855C89.2546 34.2911 89.5727 33.7345 89.9053 33.185C90.2378 32.6211 90.5415 32.0934 90.8162 31.6018C91.1054 31.0957 91.3439 30.6475 91.5319 30.2571C91.7199 29.8667 91.8138 29.5486 91.8138 29.3028C91.8138 29.0859 91.7488 28.9051 91.6186 28.7606C91.503 28.6015 91.3222 28.522 91.0764 28.522C90.1511 28.522 89.2691 28.7967 88.4304 29.3461C87.6063 29.8956 86.8327 30.5752 86.1098 31.3849C85.3868 32.1801 84.7217 33.026 84.1144 33.9224C83.5071 34.8189 82.9721 35.6214 82.5095 36.3299C82.2203 36.807 81.9528 37.3203 81.707 37.8698C81.4756 38.4047 81.2298 38.9108 80.9696 39.388C80.7093 39.8506 80.4129 40.2338 80.0803 40.5374C79.7622 40.8555 79.3574 41.0146 78.8658 41.0146C78.3597 41.0146 77.9621 40.8555 77.6729 40.5374C77.3837 40.2193 77.2391 39.829 77.2391 39.3663C77.2391 39.1205 77.3403 38.7228 77.5428 38.1734C77.7452 37.6239 78.0055 36.9878 78.3236 36.2648C78.6417 35.5418 78.9959 34.7683 79.3863 33.9441C79.7912 33.1055 80.1888 32.2813 80.5792 31.4716C80.984 30.6475 81.3672 29.8739 81.7287 29.1509C82.0901 28.428 82.3865 27.8135 82.6179 27.3074Z" fill="#FFAC50"/>
<g filter="url(#filter0_f_595_17034)">
<path d="M24.6339 34.8558C25.116 34.1066 25.1442 33.7757 25.1442 33.1845C25.1442 30.7337 23.2155 28.5801 16.3299 28.5801C12.4935 28.5801 6.5 28.9015 6.5 31.7498C6.5 32.341 6.5 32.6719 7.0103 33.4211C7.47118 34.0977 13.0454 40.3537 14.1207 41.5591C14.2249 41.6759 14.3942 41.7005 14.5268 41.6173C16.0037 40.6914 24.1953 35.5373 24.6339 34.8558Z" fill="#DEDEDE"/>
</g>
<path d="M25.8426 23.4363C26.7015 21.3469 26.7517 20.4241 26.7517 18.7753C26.7517 11.9402 21.2105 6.39941 14.3759 6.39941C7.54127 6.39941 2 11.9402 2 18.7753C2 20.4241 2 21.3469 2.9091 23.4363C3.73198 25.3276 12.4598 38.8068 14.1082 41.3468C14.2346 41.5416 14.5177 41.5419 14.6445 41.3473C16.2994 38.8085 25.0652 25.3277 25.8426 23.4363Z" fill="#1989EC"/>
<path d="M15.221 23.9453C15.0814 23.9453 14.9613 23.9194 14.8607 23.8677C14.7602 23.8116 14.6792 23.7253 14.6178 23.6088L13.6191 21.5771C13.5688 21.4736 13.552 21.383 13.5688 21.3054C13.5911 21.2234 13.6442 21.1587 13.728 21.1113C13.8118 21.0638 13.9235 21.0401 14.0631 21.0401C14.186 21.0401 14.2866 21.0638 14.3648 21.1113C14.443 21.1544 14.51 21.2385 14.5658 21.3636L15.3635 23.1559H15.1707L16.2181 20.9495C16.2628 20.8546 16.3214 20.7856 16.394 20.7424C16.4722 20.6993 16.5728 20.6777 16.6957 20.6777C16.8186 20.6777 16.9191 20.7015 16.9973 20.7489C17.0755 20.792 17.1341 20.8589 17.1732 20.9495L18.2038 23.1559H18.0279L19.0501 20.9818C19.1059 20.8654 19.1757 20.7856 19.2595 20.7424C19.3489 20.6993 19.4467 20.6777 19.5528 20.6777C19.6868 20.6777 19.7902 20.7036 19.8628 20.7554C19.9354 20.8071 19.9773 20.874 19.9885 20.956C19.9997 21.0336 19.9801 21.1199 19.9298 21.2148L18.7233 23.6088C18.6674 23.721 18.5864 23.8051 18.4803 23.8612C18.3798 23.9173 18.2597 23.9453 18.12 23.9453C17.9804 23.9453 17.8575 23.9173 17.7514 23.8612C17.6508 23.8051 17.5726 23.721 17.5168 23.6088L16.4192 21.3636H16.8968L15.8243 23.6024C15.7684 23.7188 15.6902 23.8051 15.5897 23.8612C15.4891 23.9173 15.3662 23.9453 15.221 23.9453Z" fill="#FFAC50"/>
<path d="M12.4955 20.7537C12.5258 20.7587 12.5561 20.7613 12.5865 20.7613C12.6218 20.7613 12.6572 20.7613 12.6925 20.7613C13.1321 20.7613 13.5463 20.6678 13.9353 20.4809C14.3294 20.2889 14.6729 20.0464 14.9659 19.7534C15.2589 19.4604 15.4888 19.1345 15.6555 18.7758C15.8273 18.4171 15.9132 18.0686 15.9132 17.7301C15.9132 17.4876 15.8677 17.2577 15.7768 17.0405C15.6909 16.8233 15.552 16.6338 15.36 16.4721C15.1731 16.3105 14.9306 16.1817 14.6325 16.0857C14.3395 15.9897 13.9884 15.9417 13.5792 15.9417C13.1194 15.9417 12.7229 15.9846 12.3894 16.0705C12.0611 16.1564 11.7756 16.2675 11.5331 16.4039C11.2957 16.5403 11.0936 16.697 10.9269 16.8738C10.7652 17.0506 10.6238 17.2325 10.5025 17.4194C10.3863 17.6063 10.2802 17.7882 10.1842 17.965C10.0883 18.1418 9.98722 18.2984 9.88113 18.4348C9.78009 18.5712 9.66642 18.6824 9.54012 18.7683C9.41383 18.8541 9.25722 18.8971 9.07029 18.8971C8.8177 18.8971 8.62825 18.8339 8.50195 18.7076C8.37565 18.5763 8.3125 18.3944 8.3125 18.162C8.3125 17.9448 8.3706 17.7099 8.48679 17.4573C8.60804 17.2047 8.77728 16.9521 8.99451 16.6995C9.2168 16.4469 9.48708 16.2044 9.80535 15.972C10.1236 15.7346 10.4798 15.5274 10.8738 15.3506C11.2729 15.1687 11.7074 15.0248 12.1772 14.9187C12.6471 14.8075 13.1447 14.752 13.6701 14.752C14.1854 14.752 14.678 14.8176 15.1478 14.949C15.6227 15.0803 16.042 15.2774 16.4057 15.5401C16.7695 15.7977 17.0574 16.1236 17.2696 16.5176C17.4868 16.9117 17.5955 17.3714 17.5955 17.8968C17.5955 18.2504 17.5298 18.5889 17.3984 18.9122C17.2721 19.2305 17.1004 19.5311 16.8831 19.814C16.6659 20.0919 16.4108 20.3495 16.1178 20.587C15.8298 20.8194 15.5216 21.0265 15.1933 21.2084C14.8649 21.3902 14.5264 21.5443 14.1778 21.6706C13.8343 21.7969 13.5009 21.8878 13.1775 21.9434C13.223 22.1809 13.2963 22.4486 13.3973 22.7467C13.5034 23.0397 13.6297 23.3201 13.7762 23.5878C13.9277 23.8505 14.0945 24.0753 14.2763 24.2623C14.4582 24.4492 14.6502 24.5502 14.8523 24.5654C14.8927 24.5704 14.9306 24.573 14.9659 24.573C15.0013 24.573 15.0367 24.573 15.072 24.573C15.4408 24.573 15.7692 24.5123 16.0571 24.3911C16.3451 24.2698 16.5851 24.136 16.777 23.9895C17.0044 23.8227 17.0802 23.7636 17.2469 23.5413C17.4035 23.3645 17.5626 23.2761 17.7243 23.2761C17.8253 23.2761 17.9112 23.3114 17.9819 23.3822C18.0527 23.4529 18.088 23.5489 18.088 23.6701C18.088 23.7863 18.0501 23.9227 17.9744 24.0793C17.9036 24.2309 17.7624 24.3952 17.5856 24.5619C17.0653 25.0519 16.6937 25.2701 16.1935 25.4975C15.6985 25.7197 15.2286 25.8309 14.7841 25.8309C14.4203 25.8309 14.0844 25.7273 13.7762 25.5202C13.468 25.3131 13.1876 25.0327 12.935 24.679C12.6824 24.3254 12.4526 23.9137 12.2454 23.4438C12.0383 22.969 11.8539 22.4688 11.6923 21.9434C11.6013 22.1505 11.5079 22.3956 11.4119 22.6785C11.3159 22.9563 11.2123 23.2443 11.1012 23.5424C10.99 23.8404 10.8738 24.136 10.7526 24.429C10.6313 24.7169 10.4975 24.9771 10.351 25.2095C10.2045 25.4368 10.0478 25.6212 9.88113 25.7627C9.71442 25.9041 9.53255 25.9749 9.33552 25.9749C9.17386 25.9749 9.04251 25.9496 8.94147 25.8991C8.84043 25.8486 8.76212 25.7854 8.70655 25.7096C8.65098 25.6339 8.61057 25.5505 8.58531 25.4596C8.5651 25.3686 8.55499 25.2828 8.55499 25.2019C8.55499 25.0857 8.57015 24.967 8.60046 24.8458C8.63077 24.7245 8.67371 24.6108 8.72929 24.5048L10.9648 20.4127C11.1568 20.0691 11.3487 19.7382 11.5407 19.42C11.7377 19.0966 11.9272 18.8112 12.109 18.5637C12.296 18.3161 12.4703 18.1191 12.6319 17.9726C12.7986 17.821 12.9477 17.7452 13.079 17.7452C13.1144 17.7452 13.1573 17.7528 13.2078 17.768C13.2584 17.7781 13.3038 17.8008 13.3442 17.8362C13.3847 17.8665 13.42 17.9145 13.4503 17.9802C13.4806 18.0408 13.4958 18.1191 13.4958 18.2151C13.4958 18.3111 13.468 18.4449 13.4124 18.6167C13.3569 18.7885 13.2836 18.9855 13.1927 19.2078C13.1018 19.4301 12.9957 19.6751 12.8744 19.9428C12.7532 20.2055 12.6269 20.4758 12.4955 20.7537Z" fill="white"/>
<defs>
<filter id="filter0_f_595_17034" x="5.21419" y="27.2943" width="21.2161" height="15.6579" filterUnits="userSpaceOnUse" color-interpolation-filters="sRGB">
<feFlood flood-opacity="0" result="BackgroundImageFix"/>
<feBlend mode="normal" in="SourceGraphic" in2="BackgroundImageFix" result="shape"/>
<feGaussianBlur stdDeviation="0.642903" result="effect1_foregroundBlur_595_17034"/>
</filter>
</defs>
</svg>
