<svg width="27" height="20" viewBox="0 0 27 20" fill="none" xmlns="http://www.w3.org/2000/svg">
<g clip-path="url(#clip0_6171_16890)">
<path d="M7.31348 0.769043C8.92897 0.769145 10.3743 1.56163 11.2812 2.7915L11.4395 2.62354C12.2545 1.8308 13.3443 1.34719 14.54 1.34717C16.2407 1.34717 17.7151 2.31937 18.5088 3.76807C19.2131 3.44412 19.9766 3.27743 20.748 3.27783C23.8091 3.27809 26.2939 5.85434 26.2939 9.03369C26.2939 12.213 23.809 14.7893 20.748 14.7896C20.3739 14.7896 20.0085 14.7513 19.6514 14.6782C18.9569 15.9518 17.6297 16.8168 16.1182 16.8169C15.5027 16.8181 14.895 16.6746 14.3418 16.397C13.6379 18.0985 11.9984 19.2944 10.0898 19.2944C8.09634 19.2944 6.40484 18.0013 5.75293 16.1831C5.46297 16.2461 5.16744 16.278 4.87109 16.2778C2.49968 16.2778 0.581198 14.2748 0.581055 11.8149C0.581055 10.1621 1.4446 8.72273 2.72559 7.94482C2.45383 7.30051 2.31472 6.60523 2.31543 5.90283C2.31548 3.06368 4.55463 0.769043 7.31348 0.769043Z" fill="white"/>
</g>
<defs>
<clipPath id="clip0_6171_16890">
<rect width="25.7936" height="18.5714" fill="white" transform="translate(0.603516 0.714355)"/>
</clipPath>
</defs>
</svg>
