<svg xmlns="http://www.w3.org/2000/svg" width="64" height="64" fill="none"><path fill="#18B971" fill-rule="evenodd" d="M30.55 30.49a5.35 5.35 0 0 1-.224.212l-.052.045-.027.023c-.05.041-.098.082-.15.12l-.074.057a2.077 2.077 0 0 1-.177.121l-.071.05a3.386 3.386 0 0 1-.3.174l-.036.017-1.445.615c-2.382.97-6.656 2.607-8.992 3.498l-4.368 1.674 4.55 1.825 2.045-.78c.672-.256 1.369-.522 2.067-.793l.038-.012c4.537-1.75 7.14-2.798 7.735-3.12 2.76-1.497 4.347-4.92 5.426-7.74l.014-.039c.043-.11.083-.221.124-.332l.023-.063c.04-.104.077-.207.114-.31l.937-2.712c.737-2.197 2.106-6.266 3.087-6.35.082.044.446.282 1.049 1.397.626 1.158 1.232 2.731 1.877 4.407l.019.049c1.463 3.809 2.975 7.743 5.56 9.155l.08.043 6.895 2.708.137.055 4.481-1.814-10.13-3.976c-1.495-.907-2.876-4.5-3.986-7.389l-.003-.008c-1.646-4.276-3.066-7.964-5.958-7.964-.1 0-.199 0-.298.013-.046.006-.084.01-.12.013l-.13.016h-.033c-2.91.468-4.232 4.397-5.629 8.56l-.033.1-.466 1.37-.009.026c-.178.521-.34.973-.492 1.386-.711 1.92-1.692 4.297-3.055 5.667v.006Zm-3.783 7.876 5.526 2.224 16.56-6.714 4.501 1.769L32.3 44.17l-10.085-4.045.434-.167a606.33 606.33 0 0 0 4.055-1.567l.064-.025Zm-10.57-4.234-3.956-1.587 5.155-2.09.095-.052c1.21-.668 2.133-1.98 3.022-3.247.773-1.102 1.829-2.605 2.549-2.642.067.03.37.194.888.938.568.799 1.153 1.916 1.721 3l.014.026.065.123c.242.464.49.938.738 1.386l.077.138.144-.058c.988-.396 1.6-.651 1.814-.76.314-.192.59-.442.814-.737l.077-.096-.06-.109c-.248-.445-.483-.89-.672-1.249l-.107-.202-.398-.762 3.064-1.228.028-.072c.42-1.073 1.2-3.375 1.305-3.687l.012-.035.125-.363-6.274 2.505c-1.067-1.419-2.133-2.08-3.345-2.08-2.403 0-3.91 2.143-5.238 4.037l-.01.015c-.615.873-1.306 1.855-1.844 2.202L3.344 32.56l8.249 3.31 4.605-1.74Zm16.098 12.952 24.563-9.841 4.475 1.792-29.038 11.631-.064-.025L3.259 39.035l4.473-1.792.066.025 24.497 9.816Z" clip-rule="evenodd"/></svg>