<svg xmlns="http://www.w3.org/2000/svg" viewBox="0 0 24 24" role="img" aria-label="GitHub">
  <circle cx="12" cy="12" r="11" fill="#111111"/>
  <path fill="#ffffff" d="M12 5.2a6.8 6.8 0 0 0-2.15 13.26c.34.06.46-.15.46-.33v-1.2c-1.9.41-2.3-.8-2.3-.8-.3-.76-.76-.96-.76-.96-.62-.43.05-.42.05-.42.7.05 1.06.7 1.06.7.6 1.05 1.6.75 2 .57.06-.44.24-.75.43-.92-1.52-.17-3.13-.75-3.13-3.35 0-.74.26-1.35.7-1.82-.07-.17-.3-.86.07-1.8 0 0 .57-.18 1.87.7a6.5 6.5 0 0 1 3.4 0c1.3-.87 1.87-.7 1.87-.7.37.94.14 1.63.07 1.8.44.47.7 1.08.7 1.82 0 2.6-1.62 3.17-3.15 3.34.25.22.47.64.47 1.29v1.91c0 .18.12.4.47.33A6.8 6.8 0 0 0 12 5.2z"/>
</svg>
